<mxfile host="65bd71144e">
    <diagram id="A5DTLD4nLAw3nCVtTJY2" name="Page-1">
        <mxGraphModel dx="3018" dy="936" grid="1" gridSize="10" guides="1" tooltips="1" connect="1" arrows="1" fold="1" page="1" pageScale="1" pageWidth="850" pageHeight="1100" math="0" shadow="0">
            <root>
                <mxCell id="0"/>
                <mxCell id="1" parent="0"/>
                <mxCell id="2" value="GoodStack&lt;br&gt;instance of a good in the sim,&lt;br&gt;holds data that in unique to that instance of a good" style="swimlane;fontStyle=0;childLayout=stackLayout;horizontal=1;startSize=70;horizontalStack=0;resizeParent=1;resizeParentMax=0;resizeLast=0;collapsible=1;marginBottom=0;whiteSpace=wrap;html=1;" vertex="1" parent="1">
                    <mxGeometry x="200" y="90" width="270" height="190" as="geometry"/>
                </mxCell>
                <mxCell id="3" value="ID: str -&amp;gt; unique id of good" style="text;strokeColor=none;fillColor=none;align=left;verticalAlign=middle;spacingLeft=4;spacingRight=4;overflow=hidden;points=[[0,0.5],[1,0.5]];portConstraint=eastwest;rotatable=0;whiteSpace=wrap;html=1;" vertex="1" parent="2">
                    <mxGeometry y="70" width="270" height="30" as="geometry"/>
                </mxCell>
                <mxCell id="5" value="Quantity: int -&amp;gt; number of goods in this instance" style="text;strokeColor=none;fillColor=none;align=left;verticalAlign=middle;spacingLeft=4;spacingRight=4;overflow=hidden;points=[[0,0.5],[1,0.5]];portConstraint=eastwest;rotatable=0;whiteSpace=wrap;html=1;" vertex="1" parent="2">
                    <mxGeometry y="100" width="270" height="30" as="geometry"/>
                </mxCell>
                <mxCell id="4" value="Traits: list[Trait] -&amp;gt; list of traits of the good" style="text;strokeColor=none;fillColor=none;align=left;verticalAlign=middle;spacingLeft=4;spacingRight=4;overflow=hidden;points=[[0,0.5],[1,0.5]];portConstraint=eastwest;rotatable=0;whiteSpace=wrap;html=1;" vertex="1" parent="2">
                    <mxGeometry y="130" width="270" height="30" as="geometry"/>
                </mxCell>
                <mxCell id="11" value="MetaData: list -&amp;gt; extra metadata of the good" style="text;strokeColor=none;fillColor=none;align=left;verticalAlign=middle;spacingLeft=4;spacingRight=4;overflow=hidden;points=[[0,0.5],[1,0.5]];portConstraint=eastwest;rotatable=0;whiteSpace=wrap;html=1;" vertex="1" parent="2">
                    <mxGeometry y="160" width="270" height="30" as="geometry"/>
                </mxCell>
                <mxCell id="7" value="Good&lt;br&gt;template of a good that holds data that is&lt;br&gt;common to all instances of that type of good" style="swimlane;fontStyle=0;childLayout=stackLayout;horizontal=1;startSize=70;horizontalStack=0;resizeParent=1;resizeParentMax=0;resizeLast=0;collapsible=1;marginBottom=0;whiteSpace=wrap;html=1;" vertex="1" parent="1">
                    <mxGeometry x="480" y="90" width="270" height="360" as="geometry"/>
                </mxCell>
                <mxCell id="8" value="ID: str -&amp;gt; unique id of good" style="text;strokeColor=none;fillColor=none;align=left;verticalAlign=middle;spacingLeft=4;spacingRight=4;overflow=hidden;points=[[0,0.5],[1,0.5]];portConstraint=eastwest;rotatable=0;whiteSpace=wrap;html=1;" vertex="1" parent="7">
                    <mxGeometry y="70" width="270" height="30" as="geometry"/>
                </mxCell>
                <mxCell id="17" value="Name: str -&amp;gt; display name of good" style="text;strokeColor=none;fillColor=none;align=left;verticalAlign=middle;spacingLeft=4;spacingRight=4;overflow=hidden;points=[[0,0.5],[1,0.5]];portConstraint=eastwest;rotatable=0;whiteSpace=wrap;html=1;" vertex="1" parent="7">
                    <mxGeometry y="100" width="270" height="30" as="geometry"/>
                </mxCell>
                <mxCell id="9" value="InateTraits: list[Trait] -&amp;gt; list of inate traits of the good" style="text;strokeColor=none;fillColor=none;align=left;verticalAlign=middle;spacingLeft=4;spacingRight=4;overflow=hidden;points=[[0,0.5],[1,0.5]];portConstraint=eastwest;rotatable=0;whiteSpace=wrap;html=1;" vertex="1" parent="7">
                    <mxGeometry y="130" width="270" height="40" as="geometry"/>
                </mxCell>
                <mxCell id="101" value="Tags: list[Tag] -&amp;gt; list of tags" style="text;strokeColor=none;fillColor=none;align=left;verticalAlign=middle;spacingLeft=4;spacingRight=4;overflow=hidden;points=[[0,0.5],[1,0.5]];portConstraint=eastwest;rotatable=0;whiteSpace=wrap;html=1;" vertex="1" parent="7">
                    <mxGeometry y="170" width="270" height="40" as="geometry"/>
                </mxCell>
                <mxCell id="12" value="Volume: float -&amp;gt; volume of the good, used for mass and packed volume calculations" style="text;strokeColor=none;fillColor=none;align=left;verticalAlign=middle;spacingLeft=4;spacingRight=4;overflow=hidden;points=[[0,0.5],[1,0.5]];portConstraint=eastwest;rotatable=0;whiteSpace=wrap;html=1;" vertex="1" parent="7">
                    <mxGeometry y="210" width="270" height="40" as="geometry"/>
                </mxCell>
                <mxCell id="13" value="PackingDensity: float -&amp;gt; determines max packed density of the good" style="text;strokeColor=none;fillColor=none;align=left;verticalAlign=middle;spacingLeft=4;spacingRight=4;overflow=hidden;points=[[0,0.5],[1,0.5]];portConstraint=eastwest;rotatable=0;whiteSpace=wrap;html=1;" vertex="1" parent="7">
                    <mxGeometry y="250" width="270" height="40" as="geometry"/>
                </mxCell>
                <mxCell id="14" value="MassDensity: float -&amp;gt; base mass per volume unit of the good" style="text;strokeColor=none;fillColor=none;align=left;verticalAlign=middle;spacingLeft=4;spacingRight=4;overflow=hidden;points=[[0,0.5],[1,0.5]];portConstraint=eastwest;rotatable=0;whiteSpace=wrap;html=1;" vertex="1" parent="7">
                    <mxGeometry y="290" width="270" height="40" as="geometry"/>
                </mxCell>
                <mxCell id="18" value="Phase: int -&amp;gt; phase of the good" style="text;strokeColor=none;fillColor=none;align=left;verticalAlign=middle;spacingLeft=4;spacingRight=4;overflow=hidden;points=[[0,0.5],[1,0.5]];portConstraint=eastwest;rotatable=0;whiteSpace=wrap;html=1;" vertex="1" parent="7">
                    <mxGeometry y="330" width="270" height="30" as="geometry"/>
                </mxCell>
                <mxCell id="19" value="Recipe&lt;br&gt;defines a conversion between two goods, does not require both inputs and outputs" style="swimlane;fontStyle=0;childLayout=stackLayout;horizontal=1;startSize=70;horizontalStack=0;resizeParent=1;resizeParentMax=0;resizeLast=0;collapsible=1;marginBottom=0;whiteSpace=wrap;html=1;" vertex="1" parent="1">
                    <mxGeometry x="-120" y="90" width="270" height="160" as="geometry"/>
                </mxCell>
                <mxCell id="20" value="ID: str -&amp;gt; unique id of recipe" style="text;strokeColor=none;fillColor=none;align=left;verticalAlign=middle;spacingLeft=4;spacingRight=4;overflow=hidden;points=[[0,0.5],[1,0.5]];portConstraint=eastwest;rotatable=0;whiteSpace=wrap;html=1;" vertex="1" parent="19">
                    <mxGeometry y="70" width="270" height="30" as="geometry"/>
                </mxCell>
                <mxCell id="21" value="Input: list[GoodRequest] -&amp;gt; requested goods for recipe&amp;nbsp;" style="text;strokeColor=none;fillColor=none;align=left;verticalAlign=middle;spacingLeft=4;spacingRight=4;overflow=hidden;points=[[0,0.5],[1,0.5]];portConstraint=eastwest;rotatable=0;whiteSpace=wrap;html=1;" vertex="1" parent="19">
                    <mxGeometry y="100" width="270" height="30" as="geometry"/>
                </mxCell>
                <mxCell id="22" value="Output: list[GoodResponse] -&amp;gt;&amp;nbsp;" style="text;strokeColor=none;fillColor=none;align=left;verticalAlign=middle;spacingLeft=4;spacingRight=4;overflow=hidden;points=[[0,0.5],[1,0.5]];portConstraint=eastwest;rotatable=0;whiteSpace=wrap;html=1;" vertex="1" parent="19">
                    <mxGeometry y="130" width="270" height="30" as="geometry"/>
                </mxCell>
                <mxCell id="24" value="FactoryBuilding&lt;br&gt;runs machines that run recipes" style="swimlane;fontStyle=0;childLayout=stackLayout;horizontal=1;startSize=70;horizontalStack=0;resizeParent=1;resizeParentMax=0;resizeLast=0;collapsible=1;marginBottom=0;whiteSpace=wrap;html=1;" vertex="1" parent="1">
                    <mxGeometry x="-840" y="640" width="270" height="100" as="geometry"/>
                </mxCell>
                <mxCell id="63" value="FactoryFloorSpace: int -&amp;gt; factory floor space" style="text;strokeColor=none;fillColor=none;align=left;verticalAlign=middle;spacingLeft=4;spacingRight=4;overflow=hidden;points=[[0,0.5],[1,0.5]];portConstraint=eastwest;rotatable=0;whiteSpace=wrap;html=1;" vertex="1" parent="24">
                    <mxGeometry y="70" width="270" height="30" as="geometry"/>
                </mxCell>
                <mxCell id="36" value="Site&lt;br&gt;a partitioned plot of land for putting buildings on" style="swimlane;fontStyle=0;childLayout=stackLayout;horizontal=1;startSize=70;horizontalStack=0;resizeParent=1;resizeParentMax=0;resizeLast=0;collapsible=1;marginBottom=0;whiteSpace=wrap;html=1;" vertex="1" parent="1">
                    <mxGeometry x="-840" y="80" width="270" height="190" as="geometry"/>
                </mxCell>
                <mxCell id="37" value="Name: str -&amp;gt; display name of site" style="text;strokeColor=none;fillColor=none;align=left;verticalAlign=middle;spacingLeft=4;spacingRight=4;overflow=hidden;points=[[0,0.5],[1,0.5]];portConstraint=eastwest;rotatable=0;whiteSpace=wrap;html=1;" vertex="1" parent="36">
                    <mxGeometry y="70" width="270" height="30" as="geometry"/>
                </mxCell>
                <mxCell id="38" value="ID: str -&amp;gt; unique id of site" style="text;strokeColor=none;fillColor=none;align=left;verticalAlign=middle;spacingLeft=4;spacingRight=4;overflow=hidden;points=[[0,0.5],[1,0.5]];portConstraint=eastwest;rotatable=0;whiteSpace=wrap;html=1;" vertex="1" parent="36">
                    <mxGeometry y="100" width="270" height="30" as="geometry"/>
                </mxCell>
                <mxCell id="44" value="Features: list -&amp;gt; list of features on the site" style="text;strokeColor=none;fillColor=none;align=left;verticalAlign=middle;spacingLeft=4;spacingRight=4;overflow=hidden;points=[[0,0.5],[1,0.5]];portConstraint=eastwest;rotatable=0;whiteSpace=wrap;html=1;" vertex="1" parent="36">
                    <mxGeometry y="130" width="270" height="30" as="geometry"/>
                </mxCell>
                <mxCell id="45" value="SiteType: str -&amp;gt; type of site" style="text;strokeColor=none;fillColor=none;align=left;verticalAlign=middle;spacingLeft=4;spacingRight=4;overflow=hidden;points=[[0,0.5],[1,0.5]];portConstraint=eastwest;rotatable=0;whiteSpace=wrap;html=1;" vertex="1" parent="36">
                    <mxGeometry y="160" width="270" height="30" as="geometry"/>
                </mxCell>
                <mxCell id="46" value="AbstractBuilding&lt;br&gt;building that can be configured for multiple purposes" style="swimlane;fontStyle=0;childLayout=stackLayout;horizontal=1;startSize=70;horizontalStack=0;resizeParent=1;resizeParentMax=0;resizeLast=0;collapsible=1;marginBottom=0;whiteSpace=wrap;html=1;" vertex="1" parent="1">
                    <mxGeometry x="-840" y="480" width="270" height="100" as="geometry"/>
                </mxCell>
                <mxCell id="57" value="FloorSpace: int -&amp;gt; floor space" style="text;strokeColor=none;fillColor=none;align=left;verticalAlign=middle;spacingLeft=4;spacingRight=4;overflow=hidden;points=[[0,0.5],[1,0.5]];portConstraint=eastwest;rotatable=0;whiteSpace=wrap;html=1;" vertex="1" parent="46">
                    <mxGeometry y="70" width="270" height="30" as="geometry"/>
                </mxCell>
                <mxCell id="50" value="AbstractSiteFeature&lt;br&gt;abstract site feature" style="swimlane;fontStyle=0;childLayout=stackLayout;horizontal=1;startSize=70;horizontalStack=0;resizeParent=1;resizeParentMax=0;resizeLast=0;collapsible=1;marginBottom=0;whiteSpace=wrap;html=1;" vertex="1" parent="1">
                    <mxGeometry x="-840" y="320" width="270" height="130" as="geometry"/>
                </mxCell>
                <mxCell id="51" value="ID: str -&amp;gt; unique id of building" style="text;strokeColor=none;fillColor=none;align=left;verticalAlign=middle;spacingLeft=4;spacingRight=4;overflow=hidden;points=[[0,0.5],[1,0.5]];portConstraint=eastwest;rotatable=0;whiteSpace=wrap;html=1;" vertex="1" parent="50">
                    <mxGeometry y="70" width="270" height="30" as="geometry"/>
                </mxCell>
                <mxCell id="52" value="Name: str -&amp;gt; display name of building" style="text;strokeColor=none;fillColor=none;align=left;verticalAlign=middle;spacingLeft=4;spacingRight=4;overflow=hidden;points=[[0,0.5],[1,0.5]];portConstraint=eastwest;rotatable=0;whiteSpace=wrap;html=1;" vertex="1" parent="50">
                    <mxGeometry y="100" width="270" height="30" as="geometry"/>
                </mxCell>
                <mxCell id="53" value="" style="endArrow=classic;html=1;" edge="1" parent="1" source="50" target="46">
                    <mxGeometry width="50" height="50" relative="1" as="geometry">
                        <mxPoint x="-695" y="620" as="sourcePoint"/>
                        <mxPoint x="-695" y="650" as="targetPoint"/>
                    </mxGeometry>
                </mxCell>
                <mxCell id="61" value="" style="endArrow=classic;html=1;" edge="1" parent="1" source="46" target="24">
                    <mxGeometry width="50" height="50" relative="1" as="geometry">
                        <mxPoint x="-705" y="700" as="sourcePoint"/>
                        <mxPoint x="-490" y="740" as="targetPoint"/>
                    </mxGeometry>
                </mxCell>
                <mxCell id="66" value="LogisticsBuilding&lt;br&gt;handles logistics within and between sites" style="swimlane;fontStyle=0;childLayout=stackLayout;horizontal=1;startSize=70;horizontalStack=0;resizeParent=1;resizeParentMax=0;resizeLast=0;collapsible=1;marginBottom=0;whiteSpace=wrap;html=1;" vertex="1" parent="1">
                    <mxGeometry x="-560" y="640" width="270" height="160" as="geometry"/>
                </mxCell>
                <mxCell id="69" value="StorageVolume: int -&amp;gt; storage volume" style="text;strokeColor=none;fillColor=none;align=left;verticalAlign=middle;spacingLeft=4;spacingRight=4;overflow=hidden;points=[[0,0.5],[1,0.5]];portConstraint=eastwest;rotatable=0;whiteSpace=wrap;html=1;" vertex="1" parent="66">
                    <mxGeometry y="70" width="270" height="30" as="geometry"/>
                </mxCell>
                <mxCell id="72" value="Incoming: list -&amp;gt; incoming shipments" style="text;strokeColor=none;fillColor=none;align=left;verticalAlign=middle;spacingLeft=4;spacingRight=4;overflow=hidden;points=[[0,0.5],[1,0.5]];portConstraint=eastwest;rotatable=0;whiteSpace=wrap;html=1;" vertex="1" parent="66">
                    <mxGeometry y="100" width="270" height="30" as="geometry"/>
                </mxCell>
                <mxCell id="73" value="Outgoing: list -&amp;gt; outgoing shipments" style="text;strokeColor=none;fillColor=none;align=left;verticalAlign=middle;spacingLeft=4;spacingRight=4;overflow=hidden;points=[[0,0.5],[1,0.5]];portConstraint=eastwest;rotatable=0;whiteSpace=wrap;html=1;" vertex="1" parent="66">
                    <mxGeometry y="130" width="270" height="30" as="geometry"/>
                </mxCell>
                <mxCell id="68" value="" style="endArrow=classic;html=1;" edge="1" parent="1" source="46" target="66">
                    <mxGeometry width="50" height="50" relative="1" as="geometry">
                        <mxPoint x="-695" y="620" as="sourcePoint"/>
                        <mxPoint x="-695" y="650" as="targetPoint"/>
                    </mxGeometry>
                </mxCell>
                <mxCell id="105" value="" style="shape=image;verticalLabelPosition=bottom;labelBackgroundColor=default;verticalAlign=top;aspect=fixed;imageAspect=0;image=data:image/png,iVBORw0KGgoAAAANSUhEUgAAA8EAAAHNCAYAAAA+FXlSAAAAAXNSR0IArs4c6QAAAARnQU1BAACxjwv8YQUAAAAJcEhZcwAADsMAAA7DAcdvqGQAAJ7SSURBVHhe7d0HoBxVvfjx38zt6T2hEyBAhABKgoBK8SkqKMIjuTeA2LAA+gB9KijWp0+x/Ck+sKCigkDuTVDAgh3EgpKEIsQgvZPek9t2Z/6/M3tucstO2Xbvlu8HJnvO7N7dPTOzM/Obc+YcAQAAAACgVjj2EQAAAKgJ3i3yE3HltCBTLze6Z8j5QRpATSAIBgAAQM3w2mWH40iLzQZ8X9Jum4bDAGoCQTAAAABqggbAx2gA/DebzcoX6dIz5FvcBfJeOwtAlSEIBgAAQE3IVgscx/dli/TIR9xz5Ho7q6S8xfJFjcRP1++5pwbkm8WTqZrfrGftK902eb19GYACEAQDAACgJmgQvF2Dy1E2mxuNSPufOWvW17yn//VqqkvqpF7TdeLq5Ou/TvCs+Rt359+axz6az/yvBr13HKc1l1cDGIwfEAAAAGqCd5sc5PTIozZb0fypspd7orxgswByQBAMAACAmuG1yxbHkbE2W7lMVbSj/2Zqm01+s7iSll650j1b/jd4DYCsCIIBAABQMG+J/NidL++y2bLmdUiPngQ32GzV8n3p1MB4gzTLBe7b5A47O5auy9s1nH5bkHHFcxfQczaqC0EwAACoat7N8hU9kT9Pp0bxpU7Pfsw9m+YcyHXMfZt9+t+XmSWtAYVJZez6q/z5sl3/3c9tk7UmG3zPOrlI37vZ5PUjTD1f5n9HQxJHNuj3/ZMzX1rN8yPJu0Ue1uV5SPAdBy0Ls5y0TK7Nli3v53KqroHbHHP3bq0wG1Om9tgLtilXejRn7lmu18ncz+wG6zQLXa/T+rZVoNLVzo8eAADUBO9ncome2v+vnuSYgLfsaVCSdkwAkoMgMG6QT7qny1ftrJLzOuQx/dQDBlw4CKNf0GmrnPNM71b5tqTkXVq2nHqOriW6nW5zF1RBM3JAEQQDAICq4XfIJn0Yn8lVP9+TtLuwNE1VvV/KHNkmv9KzxT30hDHnc0a/Wxa458gSm60o/mK52/flWMdcauBseSd6pUa1YEMGAABVQ4Ng3yZrhgZrW902GWezefGWyDWSlvdqstExzcWLQFfEFrc1+wUJW/N6TiYjt7lnyjuCdJnxFokX2lzabGnmmf5bXN8rdV7wf798MGUGSzLpzKNJudKjwXZ+wzYNI98T312o3xaoAgTBAACgKngdskVPbGqyuaY/X5pdV7ptNpa9//jjurxK1mQ8rNbQWyxbNegbY7MBDeQ7NZAvu0AwKgguZlCYbZmUG11H9+s6OtJmgYrG1RwAAFAddtW71Z5bZZ1NxfLaNeCql0uDGt9SLbG+es5BPE+asgV75l5c25S9Jpl7bX1HrtLFtkWDTV+ntLlXPJg8SWm+V6ceM9k/GVb6vdYTAKOa1O7BAkBVCmo36uVtunPbU08eNgczm+W/chkaAkDlqsXm0EbSTos0AJ6qAecamy0+Xfr6f2itbpIaz3K673S4aoJz4bfrIo5YQhoof11fca6+ZqKu64KWZbA6Xfm5O1/ebmcBVaFsdjIAUAg9scs0gwzbq5kjuSNb3dbC7psDUN4igywTHpt9RGZ/kLkr0w0Gi0lrKq3BTlDLprPrdJ65L9a82oRA5tVuEO6Y8KOQGmf9y8z/0UyHV/p55hua71kfF8wkbQ6t+8pt+l6jbbZgGnCZ7/icTvM08I0dPifYVzvxwbq+6Z26vz7ZZkdMWQbBERd6zPrQ9TDkOwXj/nryBi1Jk9myBpTJvJvmgnVp0mbr92STvs+U4HmgCsXuhIGRpic0X9Qd9vt0a52iU51utMF2qzvrXt1BNwYvQs3yOmSdbhCTbTaZHTLXebcstzkAVcZ28vTuIONIlwZTZXMyr/usHt1nNdjsEBqDdOv3DcYJzkaDyJQGkQM6rtLjYeKOsYoZBOdbY5u4tt6Rzc4CmWBzI6LcgmA9J0o5EcNp+Y4schfImTYLIEReOy+g1PSgs1IPKwfpBhq7jerB/9968D/YZlEkeqC9Xjw5Q5NNui7MIPquHnj1/6DGpEunmbrcR3TQ/KiTk0haCH9Bbp3IAKgdQRDty7uCjCs/cc+Q84N0EUQGgPpMkrF1g56V03J2kEnJte5Z8skgnYAGwUVpDh1W45iEfgdPv0OifbcGmps00Jxos8Ou3ILguKbQDGEEJMMPBWVDDzR/1Ydjcg5qEp40IJ7XIY9p4HtA0nWgJ0FpPQkqyfiUUfR7PqLR+CEFrXVzGmr+vu/RJDMNwUx+g/67wW2VA4M8gJqhAdoODdBabDag+4btuq8ruOdePc69rPvXGTY7hO6ATK31gM8uhbgm476rIbYnXbprHB22ny0kCDZyuXdbXzhiTaPLKQj2fyxv0K3jdzY7hC6n9eXU6gEoZyG7NqA0vLtkT1kv1+qe+kidJuvUlPRqcBQ9EJ2pB6JFNouEgtqEXvlgzhce+tOj7nBehNAT1ET3kxVT0g5nAFS2qKbKfqMc7J4m/7bZvJRTLZ5tMp6p7XY0yG8dGpxH1dgWGgQbiWuEh/k40185BcG6fW7WLxLa7D3XYbKAWjYiOxRUBu9nconTK5/UY89YPQBl6sj6Bnk3hyRfvODRMN2FeMH2lOkwxNyt4mVeHRzgSryl0fwnd5E1ATnSE4G0ngiUvEbYXERx1srzNjvsdHM2d2J9t5hNIwGUj5gOh3Zo0Jf3vbTezXKhUy9X2+wQxQgqi63UQbBhWiDpB8yy2Ugjcawvq5rgIjSlB5BRVjtblA9/sWzSAPhyTY7XPaqrB8E6PQiYTqnq7dSg80wtbnMw+dKoj2ZeffA6DRU07QQHDnbJZScIJosUABtmndtkaa2RR21qROim7DhpOS+ozQFQVbzFstomwxT2u6+TK2wqO09+alM1xdx2Ylpz2WwkDcpNL9TIwnek1yYBJEAQjOx8GW9T5S1zSvLB4F8kt7awJn3ZeItkvU3mTE9snvE6pFcfU6bmwQSZNt3t3SjvtS8zyuOSin4LAmGgyqRlqk2FmWkf8+IM6tF5AN2buGfKfJurOeZ2pqCWN2avqrvevWyy5ugx8lc2Geb39hFAAgTBGEJ3tFtssrzowdE0PdKHVDD58qxp+qMHzuvsKzCCHFcm2WRiGuRuM8279ORwHz25MeNgBi0IzJmOTTc6TfID3SZN03uRMXJ08FgO9DsmqDkCUCGCfU8IPd6YTgDz7g3fu0UetsmszBjmNlnT/B451yazM/vdDnnC5mrNG+xjViPVcRhQqUJ3+KhdGphs1ZOBojWVLYS550i30n/pzv1QOwtFkM+9tXZdpHWnEXrvb9L7tbwbZb4Gt4ttNjHz/noCtF0/ZJSdNeJG4h41AMUXcz/wSxoE72GzOTMtW8yFPZsdotD9iL7/H/XhKJ1M5UboGMP9dCa5v1nft+T3BA+m+/jYe4SHc79bLvcEx/WmzbEIyA0/mAqhB6Kpevj8vu4CM70qizTqlFl/fbvFwbvHvt1ytudd2ar5zXoA29vO2cnzpMlZEowDO/zMd9RS+Y485y6QfTIzUQpRFzvMgV3Xw2O6fQwYf1lPBu7Rk4HX2ewQSQ7C+rnP6+fuabM5CQJx0SC4FBdp9J11uzM1zvr2yfaN9BoNVAcNvB7RH/0hNjtEoT1DR/UKbXY9bmvyQEr3ocfoe/1c/3BSWICaiPlgX/6hQVxoC5uRCIKNuF609auvGK6L45UQBOsTW3V5hPYaDWCo/HeeiLVzsP30znH2Mk06zW6sfy/LZj2Y3b3Zjdoelc3rM/9n0qWiB7Gs47wWs+fgULac+pDScq8zQb4GFJ/JPInhoOv5Sl0BmXtuTXO8KXK0e6K8EOSziKtB9hvkUvd0+arNBsxVfX2YqZ9jOlYr5JQtd7pxBf/7slG3r2/pdnZZ1Emj78od7nx5u0l7N8ll+sv4nL4+63Apwbar76y/k6HvaLftwK7t3HwP04d6r/67VE+cjsu8AMBI0/1Ur/5MC27lkk3chWXfkTV67JtuswME+09f95/m9pBde5WiiirbSAXBev601PFkrs0OpTvU4eoJuRyCYO9m+YpTL5fa7BB+nXyHUQuA3AzLDqQWDUsQWSS6E1+lO/HdbHanYAzZlJyjyVF9W4o+7Oq4IunWY87+Hdmij09Ij1zrniPX22dQgWKuRj/utsqBJh0ctOv0oD3MexlzYqanJGs10DxNT9DutbMDppMtc4+xzQ6hf2uaCA5paq0nQT1BMGxOdUJLnyPzu/Alpb+97EE2gGETs1/LqaZ2MN1/rNIgKmuQa+h+YJrudwbcb6zBrxccb4eB3y3nhh2XRyoINuKa/+rn36+ff6TNlkw5BMFmxA5dGqEdltIUGsgdP5oSGNHmxHkqdAc6kgdKDK/Ik0VfunRdt+j2sF63h5w7yiqU78q17nz5sM1mFXdiNfi3oGV5Ucuyu80WX3CGLS+6C/JrIg6gMPobX66/8VfZ7BAa6GzSQGeizeZM379L37/JZgfS33//Gs24C3WloEHwAg2Cl9jsADH7+x7d32cvVxHENlEXSbmtpb+IWBZBcI7HLQDxCExKYbGssymg1tQHJy4jEACbU4S4ANgwgbpNJlLSANjQUxfHlz10ubHfAEaCI6+0qeycTOuWApg+PLLS3daA4Ga4A+BgvxkSACewzT6WRNw9v7rrDG2+Xkv0mBZ6CxOAcATBpRA70l158R1ZZZNALFOzb5PZ1Omzr7DpYaXbcbLfXZ3cY1NZ9R+X2LRwsMmS0xO6yd4Sud1mAQwTcx3KJrNyCxgaKRC1Z+r3nHebHGSTw8avkztscgjvlpjguFG+ZlMlo4vnSZvMytx2Y5NVy4sfH/hx+wggBwTBJVBJPfSZgMZdMPR+YITzfiaXmPtzNEBKmWZu3iLZqAepx2JPGKpF5OlieLP4kksWApva4jfZZHYN8nWbihw3tBSctJxqkwCGge7Dd9hkVr4nj9pk/qL2Ipke6TO65X6bKojvSDpy8nXyZJNpQtvXEWBWrpxiU1kN7gSxFPR86gCbzM6V82yqmr3RPmbltsnrbRJADgiCS0QPMltssvjsyb65FyWYNJAdMA2eH3wdO2/Xc9t0MuMesg3kwAS/Tq9crutgvAZIdTo1Oa5M0HOcWU6dnGHu2zFDO5iO0Ubiqv5w0LKGntKZZWKThUkY0A7gFqnW1s2MnRl0DDfcdMn2r4kGUFq6z2qxyazchTLbJktj4BE4tz2fObCboNaVf5qAtm9yF0h95NSmU4J7nHXZhI83nM8+Ol9Rn+VWRgekhdDDQniz7+FcD0CVCT2ZReHMECtOo3xcg85xwY7KLG27xPUhk+qb3/eYhQlaNdA6Tw9u19lZZcc0G9UDZtYSmEC8WoLtuM4phsis18267iZkZlS+uPEbc6LLR0/ieu07mgbNm81sPUGbnOuyzmU7S7K9mhqiuBPkbPRLp/SdM+9thjxTmsnks37iQPr5vfr5ofcQAigOf7HcrT/Y4212CP0t97qthf8WYzqX2jlMoe5zpuo+Z03wxCBmV6n/mX3lDqdbFjjvkt/bp0om5ntn7Um/FCLHWB6G7zGSHWPFDRXlu3KDO1/eZbMAcpDglAzDoVwONvmqhSBYy7hFyzjWZnOmwV5V9ACc84WACFHbRs7Btn6rpONG6rpM6brMWmvd952iXpON/l23/l14zUk/cWUztTk2CaBEYn/jnfLGYgSbkcf3QYF2tuOMvmbrcN9mpd/jUf0eoa2Z/JRc7p4ln7TZkopcfiFDPBbTiAbBMUNlcawA8lfxgUlN0JNrm8JICjkIJmV7AE7bLDI67eMQvjtCy6pvLTs57B/1FC1pAGzoy7fbJIAREneRq2i1raEhnDL1u/3ofmScCTB9X7YEkwk2R6Kfkahe8c3+bpgCYBME2mR2jqy0qaqk5w2h5x3mgq1NAsgDQXAZCJpkRUhy7w6GwRkyxabypkeziv7NeYvkrzZZFHrCF9x/m5UnvTaVTC6XKBKsBX27XN4xJ1ruyPvYvPZMs3AAI0Oji/U2WbioPUmWFlQmwNR9xPhgGqZgM4vQfZQum5IHX6ZHZFMDHLkfNsF4tXcKFb3tPGVTAPJAEFwGfE9ea5NDcZ2vbLiudOsRueBxETWQ/LtNVhzHlWNtcjhEHf4LE3EFfedJVw6/PX1psX+p4RcHABQstgO6lHzPpgoXvXco3X6uADv3g9ml7GPRmb5UbBPgt9hZoXy/dN+jHHiL5Ys2mVVsz9kAIhEEl4GoJll67OyxSZQBd4GM9evkO3rw3dWcNcfwx10oR9tkRTE9XttkUZh7qWwyTM4nh95dI3bPdc7Nm7Xw4eX32TcDJdUkl9pUVsWsgfWjxjAP6UujrDnSZVNF5bVLj9MgX4oJwHfSY2mDTVYnTxbYFIAS4ERrhHlL5HabzM6VDTaFMuGeIeeb5qymQ4pgass86onOlzQ47okN7SqQbqfXOH6Rh6KYLnvbVHa53JPbZ4NcZlNx4tdSDqemuj3k3mFa//FBBwnrhAVAkTgRnSkN5z68OAO7DS9H1tpUUXi3yptNZ4GOkzyoNfdL22TpjdTe2JU9bGqoKjzPAIYbQfBIS8UMRr+gtL0eonh0XX1Gg6EmExTbgHjAYUrnpSuxJ0fvZ3KJk5YP2Wx2WlItb+KOrEyzcvdEecFms8utb+gMP2Fz7aiamRxpufOrIfcimvJxggOUlhcx/Fmx99JRv+cyrAn2fi6n2mRWeqzb3yYL5i2SVXp8uTOXpaCL0wwjN95mS06/Wvi3c7MPaVUUw7mNAjWIIHiEOW5E75ScCFcsGxC7O2uLddJ54QPelynTOYnTK5fHHXB1U31WH0L3J+aCgL5mazC5cq0ui7yHmorkywybiubF178MvojRnwn4g7KYnlvb8uy51c2x4y8ARRNzG1Jx62ej9p/5XOwrtR1yrU2VjAl+g46vXJluZyXie7KpGGM35yR6/W2yqeKLaA1ljkE2CSBPBMEjyF8iHTaZle8UsXdKIEfmHmA99ifpnCStgeC+elIZfqrg6GtaZVwwzZcP27nF5yUOruNPPEND4IAblKVUPbeW32kxUF2ift/mtpZiigipI/ebg5hWOV6HPKb75ieDqV2OsU8Vl1vaFmhB0+ccg1+zvoKLycM8WoYu70dsMis99h1sk8UXtY1y9g4UjJ/RCPJT8jqbzEpPsgsekgfF4d0q39YTjq06eWbgfD0BSWk6M3VIr049Oq/bXyybvCWyNK45WTnTMj0anKQkvAdYTwIyNdzRJ5W513rmc0+wm7iGIPzEs68cEffj53LiGsqPaBkQtSwBFC76F1zUe16lTp63qaz0mJIyFx1137tdjyWd+tgVHFP0eGNqS/sm0ypHv/Ys3TfvF0yO/E1ft8q+TdHoe4fXkhc4Nq0pR057T/0035E15jYjO2e4vcI+joTwW4ZSssimAOSJIHgkOYz/Wwn0RGSbk5bz9IRjjAl+TKdF5iRB05lJpF6nBp3XqAfs8Y4nc51OuT04cdFgMgiS4zpAKxHvZvmKnly9oGUwgfquyQTvJpjvyEwDTrQcOSjp6YY/VfayybiTyh32MTFdnrmf9KQT7tOSBLFpedmmsir4Qgc9QAPlyS3ueOi6t7nbprIyt0Xp/s4cX0bpjqlZH5v0sUEfY/dT+oLpuj+farOl58qPbKrkNPjtMcGvuyDHWuMi0uUbug40Pi9p51xuW3jnke6Z8g6bBJAnTsJGUsQ9SWbvipHn/VLm6IlI/mO2Zo6g9RoYn2oCzCDwbJfl9tmS0s/Z4dTLpXpytYeWwQTquyYTvJtgXr+emeyf5MR35Y7Yzq36+LnVrOhyWp/Xt0q6R4sKsO0zepIxJ5PKzumSG2wyP1E13XmtEQBJxI0RrEHXmTZZFO58eZdNloYrT9lUUUQNX6fLJnp85WIwtb++3Kuf1WTnjBhTC22TQ+hu+uM2WTKDO9M0NfGD5wHID0HwyApd/rrjJQwuB9vkHzZVFEHg6cirbA2xZ4aGsE8Vlb53Wj8nvGfJAgUnKPPl7TYbz4/oCXkQDd49XU6TbDY3SX81EUMQmfMvm4x+P7/A3kkjankGfAcAxdUi59vUsDF9J9hk8XlF7ijKkQdsagAtQ7dNlkwQ5Jna37aEPf2XWFgttOmgS4PR62y2pEzQ2zfpcuG8HSgSfkwjKao2qhLHDkRyuubN/2ZoCG+xrLZzi8YpVVNbE511y7k5n6C48R3NmHvi7FiR4b+LGJnFmkDC35fvJA/ec5YOD3TzagoOIJmUHGBTQ5Xo8tPOvhNKIV3cGkn9rkf686U5yJjlYfb7rvxW52fmFcBPh3c0pR+zvhyDPBN86rFgm07pYDLHwGHuoAtA8XGiNYJM81ibHMLsaN0KGlInqL0LCV7Mld1yPLAlETSH3i7/tNmSMQdZmyyYd7Nc6NTL1TZbNHHbZNT2bE+i0hp8mvDTTGktcaMGe/W5lty8lf5J6F8lWZZBTXnIRcD+26sG5tfrd3xP8EQWwXBPefZ2rd+hR79Dg80OUcxtAsAuI/Xb0+Pki3qc3N1mi8L3JKUBWWhZypUui8wFRrOndeQPuh99U5AHgGFSkYFJ1QgPGfQIUcKmU0jMPUUe1ohrm82WjAZbt9hkwdyz5JuR21Y+XFlc0EUZPaXUYNJ0JGY6e2nSyXQAk3sAbO5V86XLZvPnRXxyv2WnZY6+/y0tF9hUPmjvAYyEiJYy5iKYTRad2yZ7mM4Ei/EZ5j18V/5ZiQGwocuiPpj0uEIADGAkEASXr9I1w0RO9CA91tT46VnLFhOEBScfZhoQLln5nto0Fy8INvRrFLb9DCqHn5a32mQo/ZOSj2utJ3yu1MkKmx0q3+Xf36Dw2NSA2+QQYa0fEok6ES5GOQCEecg+DuUUt5OpwUxngqalSdDE1tdjSrZfu52jz/ea/Y+5/1TTd+k0zfydmcx7aPB4eOaVAIBc5X8Ch4KZ+x/D1oAe9DboCf9kmy171docOl/+j+RIGSV/0DU8PvZXpic8pRgD0TQ303US3gN5jpKsx8gm0YXot4y8RfJXxw2/JzlJU8bIWxF8SZsaCps1tfQvOL7sYbND5Nt0UtfPDl0/oZ2X5fu+AOKFHX/53QFAbaAmuFy5stGmUIGcd8tyPZmaYAI3c1LlO/KUCSLt0wP4abnIJovKBHImoLPZgiWp9TT3p9lk0ehC2zLgIoEjH7OprArucduXrTaV0Rzd5NnrkHU2mRtTpx2mNJcSAFhDLjyaC20EwABQMwiCR1LU4daX52wKVcBdIPubWtQgIPblftNDpplMPriHt0RsjeYH9fyuKGGVt0hW2mRW5v40DYSLEnibAD5YPq0DhyLSMt1rk9n58kWbympnhywhnLqBTSXdt8kdUUtPf8b5tdjw2P8CI8nsX3ZOJWiNAwAoX5yElat0ccenRfnQIO5I90yZYyY7q6T0BO86DSRdDSqn6VTQOI8a5M62yVD6GlMD/azN5kz/1vcdWWQD+OyiQvq0HGhTA3i3yUG22X5kE3F/irzDJnfSj4sM7PV9O20yuaixihknHAAAoGQIgsvVeLnZpioD19DLngaVa3VqNrUeflp+b2pa7VOJaFSWODDTz9k3+BxX7tCAbpv5WxPcBk/adwk6GTPzzfOe/LmvRkb/1nUXyJmZV4WI2N40yB1nkwENUKeaINXpkUdjm3TrFzId19jcLnVyk01lpe/brJ/Ra7PJRNUE22UEAACA4iN0GSHejfJep0l+YLNDmGDAJitCZEdDIr1uqzTaLMqMv1ju1mj0dbrBhQZlJlA1vWTb7IjzFstWx5cxNpuVCbC1TDn9jqI6pIvqyG6AzAdnQn5XQ93+94J7UudE1AD3MRcoImvCAQAAkDdqgkdKg5xrU9Vh12n+UJ5stymUIWeBnOC2anBma2I1ALu/b9pZO1tGAXDAk4dtKlTOAbAjPVE9svtuwqFTMh/smFrnYGxkkfqdU4IAOODKYpsCAABAkSU7IUPR+YtlkwaOAzr86a+qaoJdWebOl3k2CxRF4prZBDQATmugH1vz6hV52Kkwlfb7BwAAqCTUBI8Q35fRNlnxTIdDNpldp3zbpoCi8evktzZZEP0tbk8SABvD0URZA/I1NgkAAIASIAguQ3pSHtW4uPx0yw9tKiv3HLneJoGicefLm/S3UtBwTPr3z2pgG3lv8WClrqXVgHy6TQIAAKAECIJHSp1836aGcFy5xyYrgyOH2hQwrEzNrOll2mYTM82fg3ud22RfOysn5m81gO6x2aLo+042CwAAgBIhCB4h7hlyftipu+moyCYrgy8NNgUMO3ehuGbIpyShsL6kW4PXY5M2f46iAXSTDYYLq43W/31XfluM7wQAAIB41DqMMK9dunUlBMMH6cl0Sk/oKy6g1DJ4YeOvapl8DRa42IJh4f1MLpFe+axujZ6GpqOlLnhcp+HlQ6b5tH1ZSfg/kiP9FrlJt/aZ+pkN/bb6lP44gt+1Bry9+o95pkv/Xa2B7/5mPgAAAIYPQTAKFtXTtQbBL2gQvJfNAgAAAMCIIghGUYQNkcQ9jgAAAADKCc1UURS+L/fb5E4aFd9pkwAAAAAAVB9vifzYTDYLAAAAAEB18G6Wr/gdsslM3k1ymZ0NAAAAAGWL+zWRF69dtjiOjLXZgO/LFrctewdZAAAAAFAOuCcYOfNuk4MGB8CGzhvnLZGlNgsAAAAAZYea4AS8xXK9eLJQl1aznRX0+hSp/5Id/Nqovx18WaLvtY5sc1tlnM2NKK9dtmvAO8pmhzBjA+vDiwyNBAAAAKDcEATHiAv4hpUJLbvkjc675PeZGSNDl8kOXSYtNhtNv7P+36mpNRrg3yueXKjB8drMkwAAAAAwvAiCI2iwN1WDvTU2WxZMTOm2jmwzdv9HcqSMkmU2mx9TEEf/deRpd4Hsb+cCAAAAQEkRBEfwFstWx5cxNls2nNaRX29+hwljiygTFK/WAH+GnQMAQFXwbpVviyfvCDKu/MQ9Q84P0kACuv18Vbef9wUZV76v288lQRpA3giCI3jtstl09mSzZaMcgmCj6IFwPyYm1oce3el36g4/rSXuDfIizY4vTb4v9Zqu0/lmcvV1xq4acke2akBNT9UAgBHldch2PWgPuK1Kj2Hb3bbyu8iO8qPbz0bdfibYbEC3n426/UyyWQB5oHfoCAz3E82vk7fYTrCKTnf4jk5NjisT9HGyBr4zdNpbp2n69Hh9crROzfpcg86r07SZnJ2TyDgTpHs3ynsz7wgAwPAKRlMYFAAbepAa7d0le9oskJX/C9lPt58BAbCh289E/y5azgGFIAiOoUHeBpssG167HGOTI8o9Q37ttomrUfB6O6vsOE3yA5usat5NcplpuRBMi+VKOxsAMJK6ZYVNDbVGHrUpICt/hyy3ySH8tbLSJgHkgSA4hgZ5k/1uOdf3ZIMGe55tptv374jQ73SvTZYFt1WmmCbaukhW+L6kR3LZ1KKg2X6DfMlxZFww+XKxuZ/dPg0AGCG6T66zyaFcjpaI4ctYmxrKiXgOQCzHPiJPQWcXKXm3Huh2jSFcSnrIdNoKW2+mibDTLO/003KQvtN4PRA36htu8+vlK+7p8lX7soJoEPZF/a4f04CseaS3snK5h7pUwu7N9kfLYe4p8rDNAll5N8tXnIZMJz1+j3zdPVv+N3gCQMGi+s7QJ9abi8g2CwzhtUsq7EKK70jaXRD0jwIgDwTBJWCGEPLr5HDdbc2SBknpTuozZr4GhteLJ2fpkc/stHYEXTqlg+A5uJ81dm3oEVP/PzZJTbDuOP+o73ek/oG5d7bO/GGite3IZmfB0PtPisX/sbzBb5Hv6Pcx97nEl7kIqjkI1vW8Rddv1qvBvi87dFsZbbPAEF6Hbj8ycPvRXcUWOpUDCmduTTEtc2x2CA1irtLzg4/YLDAEQTBQOlUbHJSbkN4ht2qQkrX36aBDpwY5V1w5SLPBfcl6YnqgeRxM33uVBtfTHLc463M4g0ZvidyuZ92nmM6t7KziMRcN0nKRe5Z8086pOrru07qyst7WYDot0+2r4Fse9DPW2WTQ9N0mUeFMpzzOWnneZgeo1AtHuq0+ZpOh+0tguOj22KM/pAabHaLaWymhcN4iDYLdkCDY0yB4IUEwkC92wMPAa5djHEf+ZrMDFHIQ1J3jRn3fCcVeixo7muGFhnVoqMjhlkz5Bj9r8v3KbeJdm8zIDD9R9ffLRF4l1v91PeYdBIcFSZy4VQc9QR9yYa6P78u2Svr9eIv1dzDoQpqeIPp6gki/FxgxfrvuhiP2luxLk9Nj3TP6MEOXWGNmziB+MIRiWv/9L/ccuT4zs/IRBAOlww54GOjOe4cGKi02O0BUbXCUqOCnUMN9AqxlWa9lCR3vjhOFcJEHSP2/kCA47AROt4+0bh8ceCucbjteWOuRSgogowIN/Q106W8g674XKCVviVzjePIhmx1Ct01uO0gg8gJ5GHPwk8q6kBcm8kI3QTBQEIKLYRB5splHk9Wo9yuG4Q464w5yBMHh4i6G5LvsYk889NlCO2jDyCp1EOzdKm+WlHToJ6zS7HTdZjbqvm7fzLPFkXQ79RfL3bqvfbXOMSeMdVroTLnNX5uUfTT7Y10mW8xTpewbAdVP9809um+mKXSevCz9FeRMf9e+K4vcBXKmnVNxCIKB0qGp2HAo4lLWHeLUUgbAviPbbLIsmI4fbBLZODFBQB4SXXk3AUO7HoPby3eMaMSI2i8VsIfRgHOT2YactNypJ29j9a1m6WSG79rHzDeTbjed9uV5MyeHNhkp2J59OV6/Q7NO9Trp/1Zfyj7qdzS/qPFmCrbvDunNPAPkJioARjRvsbysP8nCa3HNj92XhbqvYMhAAEMQBA+HqJAi1xDGkSdsqnDms+3n+75s91251l0wvM2Hgh6zo6RkkU0hu1y3oEh60u/ZZDxzguHIpJE8wTDD++h33hxMmrazC6Lb5Bd3vucSucbOrj5F3XIydFvYoe8b28RTt5tmexFlqp2VM32P+NtB+oLcfJjtW4PmIGi/S/a0c4FY3k1ymU1mpT+9oLUBhtJ9wjMauM6w2aLQfcUYfd+CL7yNCCfimFzCChGgFvADGgaRzQ71/1zu24y6/y2r4AMkrf9t1b97Sh9/654ln7TPjjgNOLr1gBfW0cWwNLk1B11dA5N12RR3OKE62V7qiwqRy0/l0uROl0O3niyEvlcU35NN7kKZaLPDQr/vkGZifp732Pcxga8usAF/b1pHDPfFoeGgy8/T5VeU/ZKh7xfaAWAUPy2/d8+UN9psIrrdD+kIq5QYigS50GP+Sj3mH2yzQ+h+aprup9baLPrJ+RwnB7qveUT3NXNstiLofnW77lezd2Co/xfS7wdQ6/jxDIeopax7sZxEHBzMfXx6cF2vQe8NJvgJJg0izcmbCVD0oHtkOQXAAS+8yZjZwdtkydhAah89oR5jLlQUddL3DGq7fiaX2I8rviKdLmjw95guh7wCYEPLO0GX5c6hlEotaG6bpSZQ543V75F/7eKgANgw69H7ZWWdOCUS9etK3h6gvz/Yx5w4dfIGm0xsOANgw3yebnMfsFkgWmZow1AEwNnpvruzVAGwofuaQytuX+7KDpsaQhdVCZcWUP0IgoeBnkBF7ahyu+cs6sTVkcf04DrFnS/vsnPKngYt4cumxPcD28CvtCfT5ijVK5fbXPF5Ecsvh0sIuo3Ossm86bKc7C2WF2y2ZIKagiiuPGVTOdETsPAmitvk7zaVN+9Gma/L52VvkWz0l0iHmexT1SLvi1bmYpRNli0t3JdtEsibbkd5/06qnR5Dmm0yVHCxX88NBk/26VjOdvmnTVYGXzbaFIAiIwgeDtHX6p62jxjML/l9UwfYx8pVF7516YlBopMtDUCiQumAn3BdaDC9h02WRBCoxnxXLXW++7Ux9nEoP79hdvT7rje11kHNdZMs1uUzw9Sa6xJfYCYz3750+EUtx7pMXbAG7H/1OsTrK4N3q3w7eD6bJnmVTeUsl4tR+p0KviCRD11ck20SiOZnfj/Z6Hbk6H5h2FrNVIrgOBTDtG4zvdYHrdsGTeY5v1c+nWSPqp9V9hfddnJKd2FZl0Onuajct3/fuZ9fIjfalwBVjSC4xLzFcotNZtckb7epYoi9ilpRfFlhU6VRDdfj82u2upMGFPdE1sYrXUy9bpuMD+4vTnKCUcIedfW7xt+bOzW6KWKoqLLFBd79mPsB+wJH/b6h41/3sScdS2122JiTcZscwvGC5r9muKBj+7/OSct5euKUtQd59zT5t+/n37u8CbhtMporG2wqL/odfTO0iK7ubvN99bHLbONBjZJXFXsFjDQ/+t543S9MLuV+stKY4dRij0MNcqlNhnLPlv9N0o+Iflad7seOsdny5hb32ODdIIdq2bvt8ak529LS/f87dPuk8zZUPYLgUvPkVJvKypw42mThEvTKWk78H8mRNpmV0y3/Y5Ol8ph9LK1SnlbnX+sZ0CDndTYZym3dda9wohMMvzQdCCVpaq2BzDb3xDyvnEeXLPZyg+msyQaOB+tbxS6n/vSkY665IGGzRWHuRdfvs0lPeDwTlAePdortfCbiOT1xCu1Azm2TsX5KLte/32wmc+La1z9BUEsTxUlWk6xf7TabTEyD3Wf7vod+R9eMranbdbP5vvrYYrZxU5ukb07TQxRMt6/jbDKUbsf1Zn9hs7XNk1/YVFbmopV7unzVZmMFF2zjOPInmypvvdJuUwXxfiIXmmOU0ywP6z48tv8PXYBV1xkkMFj8jgIFiTrI6YlZWk/CcgoYYt6vS98vr2abI8FbIrfryX/oRYJEB7ICBQeFEneyowfwM/WkqCRDPZngRhdS1uVkarzMCb/NDmHuUTVNdG12KN3SwoLeuJO3Uqw7E7xF1RZoee/X8kZeWIkSsyxDf6v6d+v0jwpuKhu3vnJhxurVNVSyi2ImuM3lpLRPsbabJMGDvqBX/9lDl2niToi8RbIxaK6eTcTvARhMjy1b9dgSfotFH92ufFd+6C6Q99o5JRMM+ZaWd2oy873Mr6j/Ft33qzK3Q3jSpXuj9ZKSpU63fMV5tyy3zxZd5O85z9+dHi/+pseL8NrePN93JMSc952t+7ibbXYA3Z+9Skv4G01Ojjp2hvEd+blul5EVOUAloyZ4ZBX7vpTKOkFLR4y9GX5ILCpT+6Mf9bgeSLaYIKTI05ag5qlEAbChKzxqnffYx+yaojtm0u+/yiaH8OvkLTaZlZ6APGeTsfRk8Yt6kDc1likNKLv0cbPOe9Y0jw3GAb4t07w5qqy6Dr1CAuBYIXtK8531SxXlXlFzkqLlvdBmC1PiViH5BMCGblMl7ezO0BO354LfnandzbEXXifiHvvIXxowiB5bktWkmR2bL+/Rfd8jdk5JBEG5Jx/S/cxYs68JJjOKQV+6L58Z2aBO86P1cW/9TZwho2SZCcT67h/VfbNnLqLaty6I2dfbZFa6b99hjhE2m5j+9o/V/U342MDV83s+3j4GvJ/K8Xpc2mHWk67L5boep5h1a5/OiTO/OOsYKFcc1ktID2q/0gUcGizoydoiPVCeabOJRDVj1B1+aE2wt0R+rKefpp6lKQgwzWTexzy6+q++a+iOUl+jQc8d7vyi3r9sDn5P6kF2P5sdYjhqgitd5PbgRI9vG3V12Yhb/pGfrf9rEBJ7kU1/I1v0LZKdLPZts1mYsbB1+yyoGXbU8tDfVkp/WwOG89ITjcia6Xzo5zyrn7OvzeYlp2Wap3x/mzH7r8Q14ZHbrj6Tbw2PrtPwsbILeF/Urrj9bH/6wvW635xis0VjLiQ6PfKozRaNuYfedFRls3mJ2if0p8tmqy6bnMeAj9yvu3JDJYymEbkNefInZ6Gc4C2SO3U5vqloxyT9RPZ3qHbUBJeSI4fZVFa5BsCBqF3SoOd0p7jK7DzN5HjyTt05NutLdl3x7XvUrxK54zR/5MmppvmynVMc6fB7C5FQ+Fozz4UOFeTdGN30To9/sZ2SaZAd3gNqgtMaDTim6ouSB2sR76jbZ505mdJt1DT9KoUBndgEtSr5nmyEn86YH+M+Npm/RKeU+TGBakEXp6L/MvH9uOZ72ORQ+hm6fvJqZaN/GnqvnG7vEWsOyM78XnTDSbTt6PZnOsz6lc0WT7fcb1NFZc4fzPlFX2udvCTcm+jLch4DXl8fXhNs1Mm/bKpi+XVydHCO58Z3LpZUsJ8nAEYNIAgurRn2cXjojkuDgKWmhsruFKfbZ4ojLafYVFE4dRG9WXO6WbjOiCZkjfI+m8rKbZVDbTKcEzHMR7LDZ3GHB9PP1GD4JJsrLl8221SmViXJvX79aACV9tNykz0hzrsH5STctiLXAtvfopbhqaQ1tdnoyX10R3Rpuc6m4rnyvE1lpQu5Tj8v8TA05ruZfWbMdht9Qg2EMK1iNLDottlIuu1G3mpSjvKtZc7jwnriY4Zpsq1BYeSIGc5m+b1NlreI8yHdXppsMj/63vp/l5+Sc/0G+ZCZCtnPA5WEDb2U0uHLN++hOKJ2hiItGgTMLdbVwMH0TYvagZQug/AeCktSguritcsfbTIr9xxZYpND+TLTpvKXju9hMkZJ9j/mPmKbTCz2b3rlMptKXqtif6t68jvN3HvuninvyMwp/dATpim8TeYuc1KkX1t26PtcZWoETPCuZdjfviJn3mJ5WX/Ss2w2K/cs+aRNxtLvsk/ma4bTz5sc1FKZnrEXS0p/L12mBt8Ex5o29xkGvXmbFgRx3y3gVsgJM8qSBhbN+qOKvP81oBujbqNdNlccBYzhnZT+nlbbZHJpeaNNJePEd/ypwe/LthIg+ixC9x6l7OyrGLyfSJuW58WSnA9ldvJbzf7dNT3knyXXu6fLt8xkXwFUPYLgEorcCUc0Jc1bKXaU/eg+M7qjpVy5pe2Vueq5cohN5a4uYl1Ghhb9OBHrL8F7OJ3xwzPlpVF2t6nkXPmATWXlniPX22Ry9vfoOLJGT2R2jYHryHabGirpso9h7gX3XblWT3K2mwtu+piZ9LzK1Erbl2Wlrwnu59ZptL7PR+zsvJmeqh2/+K1inB0yzyYj6Wro6+inSR/HaN70lNpi5vW9IIli94mA2qOB8L76+/uSzYbSTbIpbgjBXARjeBdyYSwB/T1Ns8lcRNbUZpF132Vu7/E6pDe4oOUm29fo8thhk2XDu1MO8trleZ3SQSDfKIu0PLkfz2LogWBtEPy25X6PNVBNCIJLKeqE1slvoHxzgmqTw8t8aqN8NpMpkgLHuEXIUC5JRDXNSxgUqPCOqBK8h7kKrwfj4jYx1e00r45OwobFMQb/4sbI0TaV3MChOoblxEOXw4f1JGeM6bjGNG8LplapM7XSQ8rUnxsRpOfAu0v2NLWw+lmxPVXrCemLNplYSbafELq4HrdJoCD6+/tMkvvq/RZZapNFsfPCmMhWncwFMT+4QNY3ZS6SBVPwB+bfTKp8+IP6ZuiQLUHg2yQ/0AVqxvlOxJTRXOSz2RGnQW9nUI6t8qjjyJ46FffcyBRY95U6XR206mnL64IFUHUIQkopYoesO7lE9weVi+CqYZ7DooSKaLZtDsg2iTARdzCaY55Nhim8Jjhq/5HwPfRgPMrcK6svz1yVT/7ZQ+nfajD1pM3lRBdkaFn0bQfUPrinyMO6fQ4JFHVeaA2rvn//dTXKPo6c0C1HOYX3ImuaGztr5flB5Q6lJ+jhw6VFMNuPTZaM2RfpCfOBNgsUhe6rfmiTWek5gqNBXlE7yQoujLXKOJ3MBTE3uEDWN2UukgWTCZSC2yDsrRD6G5hmelLWfeF6+1ZZ6fcNHVYvq9z3953ez+QSc79vUFNqOlZMtIfpRz/TlNHmRpTuJ1cEwa+5dznXcsQxx0Nf1vldMsfW+o7S6WL7LABFEDxCdP+UX1Ngt/Bm1MG+se/qr0n3NZX0JKWPnXpkWaPzV+jjouBgmOCqdV6iSlKaT6w24TWxfsx24kbUoCVd9lFXq3NYf+ZeWT0pGb3zxMtuczu3Pd0YQ+nnBNuwSFdwoG+VA+wzxZOlAzA9mRjj18l39IO3BlNKLtevkvQ3PWCopQGGYbv3bup3f3M2k+V0m8qLPamLvXcvkFl5x9pcXvxGOdgmi06/mxl2juMkis5dIO/VzT+yRZjuDsqikyz9Daw1LWx0/zolcn/s59g6Kddfli+TnF7d18bd7xtCv7pnjhM2O6K8xbJW95OvKPq3MftURx62ge9U952lHX8aqGQc3EeKl2cQ7MlDNpWYBrdp3dH+qS+oMFdBd179Nem+ppILpUEfR+nBebrOP1Qfcx/CKTfh21/UgRaFS8tWmypEyU8mvEWyMOpTdNveEGzDrQmDrizialv047PeBuCeIefr72WcmaRRTo78ngN7Fo66eFF6jTH3P58oL9hkTkzzZ1M7k8tWYU/U7rXZvJj7Hc1+zVzUs7OKQt/vb/rd8t6ugDi632qM22o1WCqrVmMaYIV/Y1/Lk4scL+nnG/wa+qXNGMz5nXcVmdeuwbxf3PGgtXye7rN+GuxTF0QPzwkgI+8dCuIFJ4Qh9Ilu3SHn2imEmKZA5kqozYbTD9CD1eP6GWXbjM80aQo7qPmmCSI1MJH0QGqGgAhbfmldfqHBlp5YXakH4dCmUUENbAzTu+7OzoUGKdb60zI+o2UMHTs3yfeMo0Fwp75J6G8x0bKIWBdG//fQ16b0tdmXm/6vv9mSbvf6+d36+aEnq/kuU33fTn3fnPZpup1s1+0kp+Gmoui6fEy3yVmFbBW6DlboOogfIgwoAv3drNffzSSbDaUBTmrnnqH/vqb/KBSa0ieGbP1+g1xarNuZ9Lid0uN2UfZfUecAxVLscwnvZrlej6xv1MKavg4a9LFBS9Cr0ypN366fFdvkWI+d63U/FbvOk/Lr5QT3P+VPNgsgoaLtGJCjPDuFSnIg0+B3lW0aWt73sUUtgSI0+0aEM+RSm8pKT8z6d+SUnRexBot0WqMnSPl3/pVc+DiLelaXRFQAbE4MbbJP+HIbjq3eCW+OneW7JqYLIOeLevo3Re2cxuzzzL7PBPK+K8v0BHibOQm2T2eYnJ10X5nW57t0eskfLYeZvyMAxnDSoGmyTUbSfWG9/l4yk+ntvG/SIHLnFPykhjIXznWfPtVmC+OG7yPCPj9UCc9Aze9e9wG/LSQA9m6Vr3od0mMqNPomp17eo4U0nVeNNRf9dLmbnuebdd6++niReY0u6432LbLL9fwvdIlnykkADOSnhLsgRIo4aY5jTtxscijdWboLZDebK2tRB0x9oqTDOVS9mO3LdWOa2LlyoU2Filp/qijrz/dyD6xyFVUO/TlFDidk6ElS9D1XvjxmUwE9UQpfbm785xVKT5yj1lv+w6BFvWuYfP4mIXe+zNMT4LHmJNgEtzsnEyTbSfeV9fp8i057mA7P7J8Cw8pcsLHJUnraPpaPiOAuXxoU7gguZunvXvcBb7Kzc+KZsYZN3wZp+YTuosL7cAih+/gJ5u9tdghnqsy2yVBajh491/u7KYtJ29lDRfeaASACQXAJmSt0NjlUTnfODZKWv9nUUPqu3i2yxObKlgYOT9hkVhr85NXLbxRvsdzitcs2nTz9/GDqf4XXHLQG5AfPH/T8zvdZZKcO6dV56zV9j/9jeYP92NKJ2oK8BNtX1KHTjx6j0rtZg+SoT/Blk00Vxg1v0q1fvzgH/+h3SdnHcKb5bQQ9GRvYcVP0ci95EBy53vIYqqiP7u+22GRyxVmDQEUzF2yKtj8LoT/74rS6KOTcpUR0waX8bllgg9+8y6nH8OfNsd0xYw0XWkr9e3PO4N0ub7RzdnJOlFW6vxxSW2zOGfsu1mk5mtwFtkVWiZuMA7WKIHikFDBGrrtQjrPJ7OrllTZVthxf9rfJrPQAEBmE5UqD0x36mQsdR0abmjg9ogSTfToj7DDTN3/Q8zvfZ1dTtHr9Z5KmXyct8rshAbN+B+8W+Z3985EXVl6l5YgcR9Cpl6ttMkxx1l9Uk+vg3KfE3PjxvHVZhd5fm/VCWMRy1+dK2gJCt8HoZu69ses1lP5mx2t5cwrizcmrTQI1LZd7afOhv83VNlkQ3d+Fdi6V6++/ILrz0M/L1Pq2SoN7TmEX/80xWnfNeQ3VFsqcIHTLb21uAN1fTvLr5Gu+IxuCSdM6L/dtoPRHQaBqEQRXqugdX2hHQuVADzZTowIBLVpRe8M0tbJ64B7RXl718x3zHZw6eUMQFHcU4e7PqG0gKtDqE/H3enKRdfxV72b5SlQzrz56MF9rkwUx5xA2mU3pT7gK73F4wFBUscMTOfJtmyoNR35sU1m5Z8k3bTIvut7rddt5VhfaruA2ZAnq6zr19Tk3NQSqVdD0Nep2pwK4C2WGTRYmeo+Y2+0USY5TWehX6A1uZyig1rePt1j+GdT+xtxCVAj9jKzHQ/cMucRdIJODSdN29lDRlSaFHqOAmkUQXEpRu6YCl7weKMPfPY/wygSmGpgN6ADCu1XebJ8urjr5vk1l58lymyoKv1nusMmyYYK7oKnUjfJeO2vYRW1Dji8Npvdn3S6263bRaZp6m+/r1MulcacKvlekptBG1GdF3SdVPOHDGSnvNjnIJrOrk7/YVEaDfMSmstKToc/YZGn4sq9NDVWkUyk9Md3X1Mz0Nevr66gqOMH3ZVpfWl+X9UILUMvMfeq6b77KZgumP+ugia3NFsSMThH5Tq5ssKnS0MIE+w4ztFQR6PFtgx7r5thsyThegcMhcaYOlAQ/rWqUw8mst0RuD4IbR9bosW1ArYyTljv1IBF+/3H+Ijs7chfKa2yyupmTiSb5ViaTh0KDFk/+bVND6XfTkwPT6+UoTZqeL+sTnUbpd9L1N9HmChdVRke6bKow0eWK3kemo4fDGNwxiy7T8J5gC12fCWhRw3uGHoYOVjTwLUoLAaCaaSD8keCi0XxpNhcVg+GR+v06NekPmLx+ky8bzN/onmuxDRiLdp4XOzyjU9wL2EPoDsxcoLe5gui5zSQ9vhV0rNJlbZZ/fHsh/d6mp2mbyx1jZQAlQRBcqaJ2ugmGg9cDwNagCZAnp0YGAb4cbVNFE9VjoxbrcZssnjHyapsqOxoUhQ/PU2pOzL3ledCTr9/bZOk5stmmChP1W4q4/y3QK4fYVCxTsx71W/NL3DO0/ub/GPlbT8sfbApAGTC9+JuLijo19G9RYQLbAdPCflObTDZ/48yXVvs2RaH7j9j9rR7b326TJaXfpfC+BNzczjWCgNeTb/etg2A9mB6oW6XOrBt97qf2pdml5XSbypkG6+HHIac493oDtYgguBqFdCbkLZHf9DV51p3qGDs7kunwySaLynfkqcHBh85L6wGl6GMbm6FP9AC21WbLipa5NNd4465MK1MrZw7sNlswfaNu98yhPWEWJDpoW2VTBdHvHb4M4u4T86I7YwluK7C9kJuadTs7K9MM0iZLw5HjbSqroq87AFVBg85uPWcYZ7NZ6bFkQP8HpWSCQt2v5t4bfX+5Hvu65TB3oVxgc0Poc2dEvqMju9tUsREEA3kiCK5cocGTHiAcM0yPHiSe0IPXDnMCbmt9T9Iz+pw6ookMEAqgJ/z7B1dPRb+fmRx5rpRBgAZ84/xU0JRrsx6s08GkQbc+pvTzzdSr6W6dunTqDL6TL9v0NduCfGZ+d/A683rzt5m/N5Npgqaz85CWP9rUiDBXsm2yIGbZuK2lH9N3AFem21RhosLcmEsUSTqS0rePDqRV3ttPDvRLsL8HkBM9h/D0nCL2Hlw9luR8j3+SfWMY/cOx+t3ybn6tx6vE9+nq/vkF950x48ErPScIP2J4+Z3f6Llc5C1pWo5X2SSAHOW9A0I8M3ZsWE2qnvH6uvPK+6RUd/6demAqedChO/9n9eAW3pkOstL1c4yuZHMP0CG6lsdptJ85APZtDWYDELlfl23eQwmZGkZ9u+zbl6fb18Jk25e/RExf1QtsNjemHJ7c6p4p8+2coor8DfmS1uVX8IUTe5KX9+/UXGCyybz5o+Uw02LBZksi6NU7aykzTPM+mwSAxPs23Rc/r/vivW02saLsO6fKXu6J8oLN5kSPL2v0+DLVZrPSL+jpMSDBTWbR5dFltEWX0XibTczcRhPVioj9NpA/agYqlSPbbapkdG++ggA4P7rc7tUg9DidJusBNHM/V797ukxaX1PYWLpR9wLVyUs2FcvcO6YH6GkmcLaz4ukr9fUbgnKUKAAORG3nntxlU4WJKnWCxur65+ttMi+67HtKHQAHYk6V9ATuAzYJoIaZ8eyTDIVn6P7LzycANszf2mTenLXyvE3mTI/P03wnpkdrXxbbVCTdfy6zyexc2WhTuYkYK1+/+zqbBJAHriCVUClrgo1iXEXNRt90+Ju2Ii9h20AhV4dtE7PDzX1XJjAOakn13fSEpVfnm3ur32qCfPPa4ZC1jDrHBOA2VxBviTzkeHKYzQ6g5X9UT5Rm22wo/a2n9LeeqLagPy1GwfuBpLzF8oLjyx42O4TfLee658j1NgugBul+YqvuJxL1GWIUdKyJOEcyNMhbI2mZGvUaQ49NebcK8jokrW8eHmhmAnXTEVdaX5XWZZPSeab1kKtPmL9z9RWjwloT9dFjyZF6LLnfZhPT7/e8vvGeNjuAfo+ztdw32yyAHEX+aFEYPbleqifXc212AN15Pq4nvwV1AlXMINju6O/WHerrM3NQCfSE5Xrdxt7T/5fs18l33DPkfJutCnqy1KsnQsFJTiEnPGGKcTEhrtnaYFqOHi3HsPYOHrXPKORkFkDli7rFZjBzzqD7r4Iu4Hm3yredtJxns0P07ZPibuUw9Pt06vfJ+b5kr10DWw1obbY0dK9byEXbbBcL9C1X6znkDJsFkIe8f5RIphQ1dX28m+VCp06uLuSdTEChB4AL9PtcZ2ehAnk3Zpoku+dE91aMcAN+q3metOhJ5GMaCM+K+kt96149eYntaKZUsu2T/LT8nt6hgdoVdYFssGJeiAz7XN+TVe5C2c2kNVCdqucpa4InYujfpaVOOqVZznbfJnfY2aF0n71Fd9djbbYktIAv6T4/tBVOEvo9TXPq0UGmQS52T5dvBWkAeSs4EEO8Ypxch/FulTc7abnTZpPR76D/b9WDWOSQBwDy4y2RH0sqGA97ys5fuyvr3QVF6tG6QN4iWaXfp8Wk9eQs585aAFQH72dyidMjlyc9K9EAuEvPHYJ9RzFkC3D1M17Qz9jLZgNRLevC6HnOet2/RfYC7f1UjndScrfNFp053dLvMCy3vADIDUFwldADyWZdm2N1he5ap7r3NTlz1VZTvZLpxfcdwXMAAKBm+Ys1+POjxw/vz88MZbiPzRaVCcaDRI9crwHw2iA9iJ7nbNOAOVMbmpAZGtE9Sz5ps1np+6b0fXPu0yGWnoMVs9IDQHHx4wQAAKghGvg9r4Ff1g6XsvE9OdNdKItsdsTkct+yoXFoym2VBpsNpcuj6PcG+75cpwH9B20WQJkhCAYAAKgRufQAXcz7f4slrlfp/vT7J+7ASwPs+/VNX2mzefM96XQX5t5JF4DhRRAMAABQAzTQW6cnfpNtNpIGc5s0mJtos2UlaW/8viv/dOfL4TabmL7/9/X952sQbS4WmHPl4HxZ/8mcN2f+De75Nf9ovkenn7sLZEHmGQDlzv6MAQAAUM2S9gKtLyp4GMdS8xbJSseRg8POZE2ASqdUAMIQBAMAAFQ5r11e1KBxd5vNzoTIdbLYmS+tmRnlT8s1VUPdR8STsVq+Fi2CuW94q9MqE+xLAGAIgmAAAIAql+he2k55o/Mu+b3NAUDVopkIAABAtXPkAZsKRQAMoFZQE4zsbr73MKlvOCtIu40/kvmHPRqkAQBARfLbxQ878/N96XLbpMVmAaCqEQQPl477VorvHhCkHe8JaT1qdpAuN4v//nbx66/RVL/xA31Pt5QrZcG8j9kZAACgwng3ynudJvmBze7i66lJG+eEAGoHO7zh0LG0Uxd1s81Zfpe0ziuvK64dy27Uf9+RyWTROpftBQCACue1yzY9Axylwa+n2ZTbJoPOUQCguhHUlNotD54vdalv2dxA6foL5Mwjvm1zI2vJ8nPE82+wuex852ppO/JimwMAAACAikMQXGztf58pUndMkHacv4jv/0MfZwT5wXx/lbTN283mRtbipf/UIHeOzWXnedfIwqP+y+YAAAAAoOLQO3QxdSx9pwbAj2jQe1MwiTysi3h85sksHL98mkPHBcCG+8x/2xQAAAAAVCSC4GL54V3NGtX+WIPfUXaOMa6sAt0wi5a+z6ay84MuM66V1tYeOwcAAAAAKhJBcLGMGvt1m6o8jv9WmxrKl9Xi1n1QWo/8sJ0DAAAAABWLe4KLoWPZ3vrvv3XKsXdFb7O0HjXBZgp3x7JR0ukcJ77fLK4crgFsva7hBn1s0EC3Png0Ya0jKf3X9AiZFsfRtPMOfX6P4D2G8P8srfOOsxkAAAAAqGgEwcXQvuz/dEnmUVNahCC445FGka4LNKhdoN/hWDu3eHxpl7a5C20OAAAAACoazaGLwfEjgk/f1LiWRvvSMzUAflhTV5YkADZ84T5gAAAAAFWDILhQi5a+SqNgncI4pQmCO5Z9UhznZk0dmJlRIi6tBQAAAABUD4LgfLQv/7wGv6ulfaknrrPczs3Cv0tDyOIHwR1Lr9F/v5zJlJgn22wKAAAAACoetXy5al/+rDi+6Qgrni//p4v4PH296ZBqKEc2y4K5ud0TvGjZaeLKz2yu9DznM7LwyC/ZXOFuXr671Pmv1oVzqJ1TZM4j0jZ3+JYPAAAAgIpCEJyL9qVbxXHG2Fw8339OF/HuupTr7ZyBfNmmAdtYm4vX0VEnst+DmipRAJmF67xT5h95o80VZvGyBeLJt3V5TLZzSsP3b5Id294n7zmxy85J5qf3v10873jx/MYg3zqPYaEAAACAKkMQnFT70mc0AN7H5pLzJRUaBIuzQ1qPHG0z8dqX/T99r4/aXJjVGgT+Td97hb42pemUpnv0i5jvoWnD0WDa10nq9Ps1aP6L+lz2baFOjpEz5v7d5vJ31131snZsr82Vni9XSNvc/5afPHCENHhHi+8eLE5qb3Flhj43UfPjNT1Kg95R+up6XbdDy+/7aV0Al0rbq75h5wAAAACocATBSSxZ9lnx5As2Vzy+dGmg1mJz0Rbf9xYN3H5lc9l5/h2ycN7bbS6Z2+5/hfR4K2xuqAVH1mmAWPh9ze3LzVjExalRHk6+/tc2l3vnAQAAgCrByX0SKf9TNlVkfvLl77k/tKlwrnOqtC/dYXPJ9KROsqmhfOkuSgBsOF5lbmumhrz9H5fYHAAAAIAKRxAcx9QCu06TzRWZm6wmPuiMS6bbXDTHaZGOpZ4s+vvVdk40x32lTQ3ly0abKtz2bR02VXkcdy+bAgAAAFDhCILjeE7pagEdPz4INkMxJe2NeifHEbfuv2wmWtqfZVNDuc6LNlW4oJMq/13i+7nVVI80Xyc6yAIAAACqBkFwlLvumqBRkOk4KTvfNyFS/vyYe7IX3/tlDUSn2VyONBBevGyTzYRznT1taijHf8qmiqN13g1S588R3zlHC//lYHK8r9lny5T3S5sAAAAAUAXoGCvKLct+LHXyTpsbyvFf1IBuD5vLne970jbP9NKcXfsy06Nz+PNJtM6NXscdS7drQbIH+oPHCL7hwZnS1KuBq/MK8b3dtew79Ps9pmV4o31F7hbd9xtx3fD7kodb5sJGj5ZxvaRS58hZR/8x8wQAAACAakAQHKVjmRnSJ2SM3yBY+qMGS/+RmZEH8x5t87LXxrff9y9x3Nk2VwB/nbTOm2ozQ5n7h02tcTZe+nipb1kj6d7zNOA3vU7vm3likKADLe9SaT3qKjsnuUVL/yCu83qbKxFdzuY/CYaI6tGpU4u8Xcu0Sec+L548KHV1v5YFr/qbeTUAAACA6kUQHKVjWXhzZ997MhM7OvtnZgzxmAZY5v7X/XQpj8vMGsKT1rnZa3qjgtM+Joh2ZL34zpSINenrZ2QPtH963/GScu+2uYFM0OjIFk2Nz8yI46fEbZoj8w971M5I5q67xsjasVttLk/BaurS5WHuYX5UF9sz4ruPSK/7d3nHKx80T+bsZ/ftJen690gq9Rpx3D11VT2t66NH2ub9p30FAAAAgApEEBxmyfJ28fxWmxsqveMNUjfq9zY3VEPdRDn9lZs0kDY9LE/IzBzEl5S0zW2wuV3al31f18y5NhfndRqQX66B2mtsfqiwJtEdyy7Qf6/NZIrAN02j5x5kc8nl3CRaA26RTbr5rhDXuVnmH3ldZn4e2pdeqO93mohrOgjTgN9v0WVfF3oBwvdelrajdrc5AAAAABWGIDjMomUaYMkrbG4wX4Oh2Rp4htV6rtbAc0aQ6li2Sv/NPryR7/VoQDV0+KVFSx/S4O4wm4tjel3WINDRYC6E7/xZ2o48zuZ2WbT0K/o5l9pc4aKad8f56f1vl57UBfp9XiG+WyeO7+r76Xs5rqY7tQwrxUn/XFpf/X/2L3K3ZPkHJC3vFfH21xjXXJjI3tQ9lne3tB51os0AAAAAqCAEwWEW3bdJXDd7U2Df36b/nK3x2e12zkC+f68Gg8cG6fZlm3UphzSH1qCxNUvQGB2A587zX5SF84b2Ar142Y81nA/v+CsfnneNLDwq2fBMwyGo6XUu0nVg7mfOL0AfzJdOaZsb3ms4AAAAgLJFEBymfekOcZwWmxvIlzXi+F/TxfcNO2cgX27UICkTXHYs7dHXDW3y3CdbU2UzNNPasaYZdXH4vukMarFOW/S7bNUZ5l7flAb5H9PnppiXFI3v/13a5h1jc7kxtcG9qffrdzzUzsmfY2rfnWabKy6CYAAAAKBiFadmrDqFB66uv1V852ibG8qRJ21KRQTAhhkLeLATT9wknvzL5grnOI06na3T+frdPqGPX9Lp8gIC4BfsYzZhHYVFa1/2W0l5t4njnqLfbZ+Cp1IFwIYj99kUAAAAgApDTXCY9qUpDaay99zs+f/U52bq0htr5wzkymzxml8Qr+snmjZDC0XwX9KA+of6uELa5t1iZ2bc8uD54vaeH6S9hm9r+lT93DcH+eFkxjMWeU4f75Xm+i9Jr3ei+HJN5skhwnu8DnPzvdOlvsHcO13+fFktbfZ+bwAAAAAVhyA4TPuyXl06IWMEOy+I4w+9x7aPL+v1byfbXA78Dmmo/2DQq3SYRUvvFtc53uZKxwR7Ivdr4PtTWTjv+5mZ1q8eGyfbtmy2uSwa50rrYcttJl7HfXeJuCfYXJlxenUZbBXX36bL5CFpnXeqfQIAAABABSIIDrNoabcGm402N4inAWBIp1mFu1Ja537Upofy/XpZvLzX5krD1Py2zdtVm7vovl09Mvd1etW+rEu3nqE9Wxu+f7b+/c02F69jmRmruPSBfRjfT+tPQdep/7wGuk+KU3evjNpyu7zthMftKwAAAABUCYLgMIuWdmkQHBbkbRfHGW1zxeXL09I2dz+by65jqaerrnTrzpdV+h12k1uXHS0p/w79qKn2GeWb2tAjYsY/vkz/fui9zmFuW7679Pgv2lyp+Tqt0enf4qd/JW2v/mowFwAAAEBNoGOsMI6kbWqosHuFi8EJ7r+NZnonLin/b8FDSm4aGAAbzuGy6L6b9TtstzOGcpzdbSqZ0458STz/jzZXfL7oMvXXSdr7vrTOdYMxnFvnHk8ADAAAANQeguBQvqkxzM73UzZVfL6Tfezh/hz/OZuKZwJAT07X7/xunS7SKb7X6Xrn6zaVvUbacdr0O5hhlrLzvd1sKrmF8/5DUg0L9PveGZSv0CnzPj+Ulm0HStvcOmmdN1XOPOr99tMAAAAA1CiaQ4dpX7ZZl844mxvIlx597hlNHZiZUSS+f7O0OO+XU+fusHPCdSwLD9L7c72LZf5RV9ucaUr9G13tJ9ncUL6s1aBxWpBuX+ZpObNvI2Y8YCdkmChTq2uCWgAAAAAoM9QEh3G88Oa5jjSK3/hdjQQ77JzkfN/cj/p5ffy0nT6rgefn9HGBtM07O1EAnGF6bw7n+74Go5cPCIAN311pU9n53u9tyiyD8NpekTH2cSjHLc390gAAAABQIGqCw9y69H2Sdr5ncyF8c19spwaxo3RqETe2s6qUtM5tsOnChdVW+9Ilde4ZMv9Vv7Jzdlm87EP6fPYxfk3dcotM1UB8XZBvX3qrOM5/Bukh/K26+WQfJ1nkn1rOw20aAAAAAMoGNcFhzgjGxo1pcmx6iHamaKA4KkEArNJfsIniaJs7Xnz/Lv2W2/RxYzC57ik6vyVrAGwsmHutvj6kFtn//c4A2HDTN9hUFqEBsL6N32JTAAAAAFBWqAmO0r70JQ1wc+/kKRvPe1YWHrWvzY2sO5ZNkU5/qZat//f5ibTOPcemd2lfmtbX5XaxxPefkLZ5s2wOAAAAAMoGNcFR2ublNtRPGEd6yiYANkxtb9u8meKn3xJM0jg3awAc8DfYRHJmnGEAAAAAKEMEwXFcJ/fOr/ozPUkvmNtkc+Wl7dW/DqbWw5bbOUM5dcmHY+pT5/3ZpgAAAACgrBAEx5l/ZJsupc9pMJu2c3KxUdrKNABOLMG4wv2ZWu8Fr/6UzQEAAABAWeGe4FwsXvqEeLKfODGdYPnONvG9a2ThvE/aOZXL911ZvDyXCwB3S+vcE20aAAAAAMoKQXA+bln6Uanz/0scd6Kk/RZxzVBJdV0aMN4n9RM+LWcc8Ih9ZXVYtPRZcZ29bS6C/6i0zpttMwAAAABQdgiCEe/mB18pdT3/0KA/fIxjX+6Utrkn2xwAAAAAlCXuCUa8s454QJxRkzTQfcrOyfB9X6cHxfPfTwAMAAAAoBJQE4zcLPnnwdKzfXyQrn/+AWlt7QnSAAAAAAAAAAAAAMoHNcGFuOWht4jb/aEgnU5fJ2cdc0eQBgAAAACUJYLgfLUv+5UuvbfYXIbn/VYWHvUmm6tsptlzKj1HpPd0cd0x4vnj9PERLeOtsnDeXfZVAAAAAFBRCILz0d7eIs7+O2xuoKlbx8qJJ26zucqzaPmnxfXP1dS+mRlZOP51smDeB20OAAAAACoGvUPnZf/bbWKoNWN/alOVpf2+70j70uc1AP6i5sIDYMN3PiB3LJticwAAAABQMQiC8+HILJvK5mD7WBkWL/2uBr9bxXE/KI6zp50br1MutykAAAAAqBgEwfnwvbRNZeHX2UR561h2owa/24JaXccZY+cm5/oRywAAAAAAyhP3BOejfdmjuuQOsrmBfH+VtM3bzebKS/vfJok03SCSPkkct8HOzc+YcePl5AO32Fx+bn1wmqR6j9Mg3NSsb9aAfIsG15vEl03ipDdKb/1GmTB2vX5Od+YPAAAAAKAwBMH5aF+2QpfcK2xusDXSOne6TZePxcsWi+efoQFnYevc930R92ppO/Ijdk5+2pfO13+/pd9namZGBN/v0dd16aMJhnt06tW8Tvroic7zu0xvXfro6XOeuM5qDaR1HfkPamD9gK6P58zbAAAAAABBcD4WL/+nBmRzbG4Qf520zosP7IaLqf11Gu/V1IGZGTny/Wf03026qWzXreUvkqpvl7OOeCDzZAE6lqb1PYenOb7vv6jffakGxh3SNu8WOxcAAABADSIIzsfipQ+I7xxhcwN5/gZZOG+yzY2sxfd/TLz0F8Vxmu2cZExtry9/1dRnSzIm8OJlC4KAdCT4/lUaCBdWiw0AAACgYtExVj486bWpoRy/PJZpx7Jfiu99PacA2AS/nv8nnfbR4Pd1JQmADW+YaoCzcZyLpeMf2S9gAAAAAKh6BMF5ccN7RnbqRrZ2fdEDC6R92SpNnZyZkYAf3Et7t4zbsYcGvifImUc9n3miRNqObLepkeG7p9kUAAAAgBpDEJwP0yFTGH8Ea4Lbl31K4/MO/X5JO+YynU39TFrnNuh0orzl+Jft/NLznYX62Ztsbng5jrnPGQAAAEAN4p7gfHQsu1v/PT6TGcSXbdI2d6zNDZ+Opf/S1Tnb5uI5/k2yYN47bG5ktD+wh0jqOE0dqdN4/VLj9XuN0wB5ogaqe4nvzdDH4m+jzTJaTp27w+YAAAAA1BCC4HwsXvo3DdSOsbmBHGezLDhygs0Nj/alf9LPNcFkAt5mDdQ/KG1HjWyT5CQyQfIx4rqvEi/dKOLXi1/XpFttg6YbtRwmPUpfacYr1oDZ1e3Zd3X+eg2mNaiWKbpCDjdvleE/pPMvkAVH/c3OAAAAAFBjCILz0b70Pg0659ncQL63SQPMiTZXeh33XSziXmlzMZzl0nrkXJupDe1/axGnMTNkFeMFAwAAADWPe4Lz02gfh3Kc8E6zSsF33mVT4Xw/LZ58p+YCYKPt2M4g+CUABgAAAKAIgvNTbx+H8jXcHE5OyHjFfXz/calrOlQWzj3fzgEAAACAmkUQnA9H6mwqC2f4gmAzHFIU3/+htM07UOYf9qidAwAAAAA1jXuC89F+3xPiuPvb3GAvSevcPWy6tBYt+7a4cp7NDbZJv8fw3ZtcqJuX7y513rG6RR6suR7xJaXpXn3s1Wi+Rxz/fvEafFn4qocyfwAAAAAAuSMIzsei+54R193H5gby5Xlpm7u3zZVW+7K/6Bp8jc0N5PsrpG3eoTZX3hYvWyCefFvLMtnOCRcEx/6dmnpYvLoOgmIAAAAAuaA5dD4cN3y5OTKcHWONsY/Z/Ns+lreOjjoNbDsSBcCGY+7Hdt6m06fE9R6U9qV/kI5lF+s0PBceAAAAAFQ0guC8eGNtYijf325Tw2GKfczCfd4myps/s9Wm8uM4r9d/zRBRz0r7sl9pUHyhLF72OrnrrvDOywAAAADULILgvLhRQfCLNjUM/E6bGMr3J9lUmXMjOhnLkSNv0aD4avHlHlk7pls6lt4rHcu+HQTFAAAAAKAIgvMR1Tu06//CpkrPcXbY1FCON86mctOx7AJpX/q0Tmk7PS9Llme//7kYpm1ZZFNF5ui27RytifOCoLh92ccz8wEAAADUMoLgXLXf/zGbyq711f9nU6Xn++FBsDiH20Qy7cuv1EBxjaau1eB6X51cO+0pae9Jueuu5swLi+zEE1NajrM1tSUzo0Qc+VrQAzUAAACAmkbv0LnqWPYn/fe4TGYwPyWt8xpspvTal35Pg9T32dxQvv+gruLF4vppkbq0pNOu1Mk0SftTxHUn6QsO0EkDw6B5d/QFEU++Iwvnnm9zxWc6tvJ909P1YTqZZWju6W3QLbRB/OBxP82/QssTcR90HP9CXT/Dd5ECAAAAQNkhCM5Vx7JV+u/0TGYQX9ZrIPeQBp0aULqups1jvbgafHqmVlVDUF+DTVef8/w6/QNd/sF8fZ3mfUfz5m9MU96d62altM09yaYHav/bJHEa19tcaXnybw2CzRi+I2vR8uPE9c7QxdOmuezrIYzvnyVt826xOQAAAAA1iCA4Vx1Le3SxDV9tb8DvEqfuP2TBq/5mZ+xi7t81zZdLzUl/RRa8+lM2Vx7al52uy+ZtWv7/1Nz4zMwoT9VLa+twDmEFAAAAoMwQBOeqY6mni20Elpu/XlrnDW0KvOiBBeKmO2yuVDZL69wJNl1+fN+RJcveKJ6cqOvmcJ1xpK6iafZZ4zF9zYelbd7vbB4AAABAjSIIzlXHMjME0vB3sOTr1DY3+/rqWGru/c2tI6ykfP9pDR7N/biVZfE/DhHPHR2kp227P+iACwAAAEDNIwjO1aL7fiOum/0e3VJrDQmCzb3B0rC8qM2ifXlIxPuKtB3VbucAAAAAQMUjCM5H+9KUBpzhYwWXhL9OWudNtZns2u+7TdfoCSJugvtjs9HP8GW5eN0fkjNf+6SdCQAAAABVgyA4X+3LVunSy6134nz53g4ZteMIedsJj9s50dqXnqXf7UMa0I7SVbyXvoGjeUcfXtZ5kzRlxhfeqo8bdZ6p8f2LtM1bkvljAAAAAKheBMGFaF9+ngaQ5+lS3Ec8aQr6y/J934Sb+qw+Op5OvqQ163j6j6t5fd485+tfmOdMTp/UQDeTd31PX69/62Z6Mfb9R2ThvLcHaQAAAAAAAAAAAAAAAAAAAAAAAAAAAAAAAAAAgCpGx1gomlVTplzmNzX9l+/7k+2sUI7jrN/txRdn2CwAAAAADAuCYBTF87vttq7OdWOD38Hqenounb527VdtFgAAAABKyrWPQN48kan5BMBGurHxcpsEAAAAgJIjCEbBXt5tt0dtEgAAAADKGkEwRpRvHwEAAABgOBAEo2C777HHPJvMGTelAwAAABhOBMEomLNs2VM2mRNTC+zU138hkwMAAACA0qMiDgV7cbfdXnBcdw+bHcoPGj2ng7TlOc6GPV98cZrNAgAAAMCwIAhGQZ7bc8/j6z3vbnHCN6W6np4F09euXWKzAAAAADBinJl7zQqq6To7u4IZSUycNEE2bthkc8kcMme2rHh4pc3Fy/UzWlqag0fKkUyxyvGRel/OqQvv3uoHaUeuTSW71sL6oBxxKAflSIJyUI4kKEcylINyJEE5KEcS5VQO7glG3k5wowNg4xcaBAMAAABAuSAIRt7eXGcTIb7hNMqz0TEyAAAAAAwrgmDkxdQCn6RTmL86dfIzp97mMNz2ak7JW6fuCKYZTQP6JCuqsfWeXLbfZnnhhOeD6eZJ98jrJyVvSgMAAAAMN4Jg5OW0mFrg7zoNNoXhdtq0HXL3Uavke4euD6Y/afrNk7fZZ4tnztgeufrgDfLhfbZInSPBNM3tkpsOXysnT+20rwIAAADKC0FwFTlZA1Mzner6snswCm9pHKBbzWsiaoG/knLkSTatEdGs6+Xbh6yXUf3u1R5X78m3Zr1sc8Vx9IRu+clh6+QtIcHuG6cQBAMAAKA8EalUgRNT3XJnoydf0mDHTJ9v8OUXTb5c0+DJXiXol2qe40tYRfBWjb1+HtIZ1gSdxmhwbiaURlQN7EV7brCpwpjmzjcdtlamNYY3s371+G6bAgAAAMoLQXCFO7POl093b5fpWeLOY3Xt3q7Bsbl/t5iiaoEXeY4cpc+f4qfkPX6vfEaD8u9oUP4b/R5/bPLkHg3OzXSb5j9YXzvB8GidXun48mazbHSdvV0fz9DHNp3O0umUDevkeJ03tcCLFl7EIl0wdbO4Bb7/mzXINs2d+9c0Z/PLNaNsCgAAACgvBMEV7I0aNH08QSD5FQ1CD9IArFj2iwik3q/B0VX6eZ/ye+R9GgSfXidBUDw4uNtb8x/U197Y4MkhVboVHqbl+pCunx9pGf/c5MkPGn35si6bL+q8z+njZfp4iU4f02nhutVypc5boq8t5KLFc13hnZHt3pSSYyfk32mV6WTrh4eus7lwz+t3+O36zDhtAAAAQLkhCK5QptspE2Al0aTT5/QPxhVYC2iY0GZGEd6njwmA58fUKlaaQ9OpoFm6CX7P1bKZYDipsbpsr9BguCHPZXz/lkbpeNnUO2f3nj3y6yDLdLZlOtmKs7Rnipx43wxZutlsdQAAAED5cd580slBBNLbmwpmJNHS0iydnbnVKE2bPkXWrI6vReqT62c0NGRqwGqlHG/euF7OXrvK5pL5x9jxcs1uewbpQsrxlWeekD17invP56X77C8bJkyo+O3qLbpezspxvWRz9e57y7IxY21uqKhyvKn5Jfn4mEdsbqAdfr2cuv71Nhet7zPOHvWUvGfUE3ZuuLu7Z8j3Rp0oq1fHB8t9Sr0+jFw/w2B/lQzloBxJUA7KkQTlSIZyUI4kKEd8OZyZe80KguBcPmDipAmyccMmm0vmkDmzZcXDK20uXq6fYRaSUSvluKHBk0PzqMf/QdqRa1NObDmmOCKvsE2oV3gi3qSJO8thajeT1kIndV6vI49P2PUZSZXTdvXZBl9OK6Apc38f1eVxtxdeHRxVDnPf71PHvSBNId/ljAemyd82xdfUHjZjlHxk6nPy5gQ9PS9aNVo+snJS6Powzd+P1O3VNMtvsB2j/VnL91CO67zWfuf9UQ7KEYdyUI4kKAflSIJyJEM5KrccNIeuQC065RMAGyaAjet8yXTQ9FMNss29vWZa0ujLMeke+6zIjzSQXlvcGDgIkCqZuShQrADYMAFivkznWHdvyOwEsnntxPgdg2n+vGjWk4kC4B++MCYIgI3R6bQco+vyLXWZTts+rNOiRi/oCM10ktaqeXOfuJlMs+9zexhKCQAAAMOLILgCnayBRJhHfSc2gDo/ohbX3ItqOmga0+8txmv6S13bdm4sZmCcBb2u/CJkKKR8vOTZRAUy4aa5uFAMG3W6uNcJlnEh/hFxT+4Jk8KD4BlNabni4A3BWMMT6+Obktz47Hh5+KkJwbBcpgfw7zz5qFzb4Mn/asBrOm17r04HRmwmZ/V2FuVedQAAACApguAKFNU7850aPX055chzETGZqbGc3NtrcwO9NmKLeF2/ms4tmvysfk6rBsPf0Mef6eeaoPi6PAPjBzR4LwbT7PatGpCanpdNzaOpyb5U0yZINb1U7+0VGl4OdW7ERYX+nteX/Uo//ie6jH6oy+z7+vgdfbxGHxdNmS4X6rJs7XbkngJqgfv8eUN4EPzKcT1ywKih63/hjO3yu3mr5czdtts50W57bKIc/cKYINg9VZdtvsM7vbWINegAAABAHILgChQ13NHTGkyu1qc/3xsdkRy9dbNNFeYJT+RmDeK+mHKDoDiq1i/Mz/Xvo4L2JGbp55ohiEyz2//RoMyMwWua3B6nAZZpgmuaK5vxin/YuTnotfk9mi/Wxm8CwCg3avlO73Hl7Tp9WpfTFbqc/k/nfUsfzUWD6/Xxl5OmyF90Wa6XwgNg45FtjfLv7aYP8ezmjd/VvH1aY1q+OXuDXKnTlIZkFwm+/tQEefW6UQNaDOTLNO8HAAAAhgtBcAWaExF4PGVuCFUPajC8RAOsMCdsMQ1vhzKBWJgkNZRTbKdHufhlgU2hTQ11uwa/r0w4FrIZsui/NDBe1uQFwXIhzGdG1YCe3+vIlRrkPlvYx+TlDxFj9R42NhMEnzK1U3515GpZMCNZ7e/TnfVyzj+nyIMvhPdcnatZ7IUAAAAwjDj9rDAH6BqLGkN2jbPryV9HBK0zenrkhCw1mL066yMauG3t95QJlz/dPDZRePuHHJvyXqqfdV+BzX/Pz/SGnhfTbNrUHOcragxgc0HhH0Vo2pyvB7Y02tRQR0/oli/P2ijfP3Sd7NGcrPZ38arR8tbl0+X366m7BQAAQOUiCK4wu8WEosf1W6P3axAWda/tfiFr/08auJ3R68pFGqCaaUG3I/fWhTet7e9X+rd/SFCz+zd9jWke/NsCg8S3r18rByesAQ5j7iG+vCG/95gX0RT6b97I/rzu3xp+X/DBo3vlPXtus7loPboNXfb4RLlw5STZoNuFcU+Btff9sRMCAADAcOL8s8LE9aS7z6CAMKoH5xMjgsd1+pTpZdpMG3K4T9UMnfRxDZSudBvlNqde7tC/N/f8mumbOn0s5cqbNPj9sL7GdBRViBPrNIDdmHzA7SgnaTD7vhybRo8RX46N+AU942fuSzbNtc00vbB4P2cvddVF3hecxO1rRsmJ982Q618YY+dkpHRRmbGM+7cY6HOvBsgduq7N/c5f0/V9jq5rMw50GCePJvQAAABAvgiCK8x4+ximf8WkuV/1SCe8ym6GW7qobInUy9edxqCDrs+lMtOPdPpjOhMoF8qEdv+v3pNmr3hVkhfU+zI3h19EVABsfKsh00P11fpopjsbPbmp0c/aDL1Ulkc0iY6yRYPXzzy/p5y3YrI8tSN7e/O7PUfma4BrhnQy0/s1fc6Bh8iH9PFyXdem5+tFur5X6CryIi6kFFiRDwAAAOSEILjCTIiJW83Tprdi0xOy6S355LrM/Gw22U60KtHxMYGkuc/YBGYX6GR6rf5e2pHHExT3vTnUBp8SsWzDzNaI7wpdNybgHg4rt+VeE/yLtaPkpKXT5dYNE+2ccOaChukwzUzLI65HjI6o7d3W7z52AAAAoNScI+bMDc5Ou7u7gxlJjBs/TrZs3mJzyex/wEx58omnbS5erp/R1JS5/7Hay3Fx93Z5Wyq8jP9y6+UVXsrmov2hvlG+3DSwmWuYclsfC3u75P09O2xuqO83jpJbGob2jnxSU72cu3GdTPHDI7b/ahkXLEcjrBwmqLthx2aZEPE+cS5qHieP1GU+p1Tb1Ud3WyXvm7bW5uJ99aXd5MdrpwTpYv4+3pDqkU92Z78H+VZdT9/S9ZVErfzOs6EclCMO5aAcSVAOypEE5UiGclRuOZyZe80KguDOzq5gRhITJ02QjRs22Vwyh8yZLSseXmlz8XL9jJaWTMBT7eX4Rr0nr8+jBjIbU0v6dy9ZLVy5rY931/tyYUSt7VdTjrSnh5bNfMasTRuDmvIwt+jffV3/3ggrhxmX2AzLVAhz76xpOmwUe7t63cQuuWDvrXLCpGTL/9frWuTrT42Xf/W7hzjXdW6ElaNN19UlIbXf5t5h03Q6iVr5nWdDOShHHMpBOZKgHJQjCcqRDOWo3HLQHLrCRI1Jm4t/jB2fOACuRFH9Hpum0tdGBF0HJrhJdVQROnM6Rn99U0qwCi7Zb7N0HLE2cQD8pScnyHsenjIgAC62qPYG2wpflAAAAEBiBMEVZkYRgqZvaAB4zW572lx12hITWEUNzTQ7wa/i0Yihp3JxVJF/gV89cKNcvE9uTVMWvTzapkrH9I4d5jmCYAAAAAwjguAKYurpCqkJ/knakTN6HLk5SzPharMpZlinqDDR3J3a98OYYoZB8tM7hznqY+40+E1MTboZCzlbk+z+1vnFiQBH1fnyg0PXyTv3SDb2b3/n7J773+RipuPLYRF7mlVFuqAAAAAAJEEQXEGm5tkE9xoNxI7sduWKlCNP10jAsTHLotpTi/4f6R75eH1muKIw5hkzmR6ob/I65et+985hjj7U777WT/Y68t1+zao36vSrtMjnm8fKsbq8v6fPnRzTi/VjRWiSvldzSm46bK2cPLXTzsmNaT6936hknanlwzT7DvOUWyePFec6AAAAAJAIQXAFmZznuL4frvNlTo2t6XUaWJmldZQGoedr4PrjBk/u0MD3U13b5ExdHpnb5rP7uQam9frHV2rQO/he1nP1b0/Rqc930468SgPe1+j0/h5Hfum5Mtrz5Fz9zG/q34+NWGWmRj637gSGmjO2R248bJ0cPSF5b37ZfHjv3JpQ5+K4iG3vL/X5jWMMAAAA5IsguIJMKKAzpi9rQHZojaxtM3btp+s9+XOTF/QC/f4cLwLcm44O3E6wtbtn6ft+Vt/f1Cr/VT9rSaMv12qw/fGe7UGwHBUAG7/TzynU/83eIAeN7rW5cN96cZLcv63F5oY6c7ft8uY8a5LjmAsRYZbboagAAACA4UIQXEHCQxgRE0+Z4C/M7hpAX6uBYVRAUi3MfdMn12Xu7c3VH7zoTrMMjXvlc/rPx+p9OU2X5/SYYDebH6QdeajApulmCKS4ALhHP+O9j0yRbzw/Wa59YaKdm92lMzdLQ5G3jxMjhvMyHWI9Ule6HqkBAACAbAiCK0hUE94/aRT85YhhfwxTM2lqRk+qgUA4H+Yiwv+lMj+Je8JvGZZVOr29gGV4hwbZUUM0JWFaxn9m/+jG1M911UvrA1PlzrWZyyd3bRoti1eF9wRtAmoTCBfTvhHDTf0xptMwAAAAoBQIgitIS0TM8JI48icNrq5LEFhcroHw2zasszkYf9Gg94xed+dwPSl9/GivM2S8YVODO9am8/Fz/fvP6/sW6g3jo4PVB7Y0ytkPTZF/bG6yczKufS7625va5dOm7bC5wu0f0YT/mfyvIwAAAAB5IwiuIFE1wVttQPGdlCM/TRAIt65bLV+o9+WVETV1teB2z5GLNSi9UAPgbYMWxd363Nlui3zCaQpeYyZTg/tyns2YTSdanyuwBriPF/EdVmxrkHP+OVWe2DG0qfG/tzfI/zw5weay+79XrJcTJ3XZXGEOjCjuMzHDWAEAAACl4Bw8a05w6t/dlfykd/yE8bJ5U27NJg+aPUv+vfJxm4uX62c0NWdCxGoux3v9XjlXp2yuchplsZPpZMj8+1m/R/7DTzbszYPiyp36t/90XHku5LpIua2Pd2jZztcy5uuvTp18TZfZuphALFs5DvfT8i0/eW/M5rN+I3XyB7t+sslnu3rg4GU2N9D5j+0mv9kwsF/rweW46RUvyjHjwmt8d6Rd+Z/V+0rHcxE39WbRvxyjxJffeeGdbb3JHSV1ZbZd9WF/lQzloBxJUA7KkQTlSIZyUI4kKEd8OagJriAbIgK2/rVqJvT9rAZ4Pw/C4XhHiCef1IDyFq9LLggJsqvNa0wgq+U9JuhSLDcPaVD7GadJBofBz+vPyQS8P28aJd/W5f8/bpO8w2kOapKjAuB8nafB7vrUriB1k6azBcDZXPH8JJvKblSdJ6eMW29z+dknoim0WVaDm5oDAAAAw8GZudes4Ey1szN55D9x0gTZuCG3EU4PmTNbVjy80ubi5foZLS2ZyL+ayzFN49xfNw7tsanTceQ1XdkD5Pl1vnyqPrcmzzekHblqULPdclsf79YyXdhvvN7+ntfZe4VfLxjiQ72u3BvSEVZUOXbr15R8je/sDKeHc7ua3ODJvPGZcNzcB7y6J3vN7eBymI61Xjzh+SAd5aA/7yFbbGdhSfQvh+mh+0v12Res6YH70l6n7LarPuyvkqEclCMJykE5kqAcyVAOypEE5YgvBzXBFWSNxlyDe4A2q/hrjeE9/i7RgPYrOd6H+pYK6D36hYjem/+fltfcG52UGdv36DzKbO4N7puKMORvXtZrAP/rdS3BFBYAZ3PylPjOr57pbsopAJ4kvhyxfau8s84PplPd8JU0Vl9rXtPa27Xz9a/TdcAOCQAAAKXGOWeFMUHt2T2ZHobNdIam76lvtM9mt1j/5gJ97eqEcZ4ZZ7cht7h52JmesMP82faSfaYum99HvK6/bzX4eQXClWr/UfH3i/9u8zibinecLruOJpH/fvE5ubjeD6ajIvYux+hz5jUf7Nmx8/VX6zpY1ODJ4TXeWRsAAABKiyC4Aq30nWCsWTMl7an47/ra92lQ+H0NDuPcmRbpLfM4xNy5/N8pV7rcXZvwZv3OH9Fgv++r/1uXzSc0f5m+zgwhFecaDcJeXUOBcBTTg/SVL8+wuWhmyV6ly87UBBfqAF2dnxvaqTUAAABQNATBNeRFDVe+lXLkrd2OLJoyfeeYuP09qoHjIq8yNou7NFi/ZN8DgsDXTAt63aw1xCaoX6BlvjnmAoAp9SX1UvM1kV99arx8+7nkoyGbWuBi2leX/0HUBgMAAKBECIJrkKkV/eWkKXJajxsEj2bs22/Y6aweRx6OuN+23GyobwgCXzOti4ibzEA9pnw/q2/KzAhhArBPNviyRxFqNStVBa1+AAAAIGcEwTXOBI8/SGdqSeNqSqvBNU2jpT2mnAfq06/NbXjcmnZPltr3QjzjO0FTdgAAAKAUCIJRc76acqQjJhA+kV9GYqbO/OJeRzZmsgV5whP5Qm0MVQ0AAIARwqk+atLlGgibnrbDPMAtqTkxtcHmvusr9tg7GGM66fTdxlE70yaQXtjrykPUAgMAAKCECIJRs8yYy6YpeDZ/LXIT31qwQRx5YPRYuUGXadKpo6F5Z9oE0tyPDAAAgFIjCEZNM52CfTHlBkMumWmFRmFmHOZHiMYAAACAquQcMWdu0PCzu7s7mJHEuPHjZMvmLTaXzP4HzJQnn3ja5uLl+hlNTZlefylHMpQjmWotxwenr5GLZqwO0oNd9fIMuW7NVNYH5YhFOShHEpSDciRBOZKhHJQjCcoRXw5n5l6zgiC4s7MrmJHExEkTZOOGTTaXzCFzZsuKh1faXLxcP6OlpTl4pBzJVFM5Vj38L3mFbdOw0o8eKon1kSnHRftskUv32xykB/vKU+Plm8+Oq4hyJEE5KEccykE5kqAclCMJypEM5aAcSZSyHDSHRkV75bat0tHky9UNmenWBk+Od+nVCgAAAEB2BME1ZIoj8joNEM00LpWycyuX2Xg/+tJzMjGTDYzVMl6pwXAD/VoBAAAAyIIguEaY2tHFDd7OGtPLn31SjqvwGlMTzId5jUNtMAAAAIChCIJDTJJMjamZJmu6ktXpZGpHx/erHR2bTslVOq+SN4B9Imp7o54DAAAAULsIgrMwgW9Hk+ysNV3S6Fd0rWlUjWnUcwAAAABQbQiCBzEViCbwNTXBfUwNqqk1NTWqlSiqVnRvakwBAAAA1BCC4EHaIiJdak0BAAAAoLIRBA/yiogOlVyHalMAAAAAqGQEwYO8KqImeBMVwQAAAABQ0QiC+9nLEdk9oifolZ5NAAAAAAAqEkFwP1FNoR/wHem0aQAAAABAZXLefNLJQeTX25sKZiTR0tIsnZ1dNpfMtOlTZM3qdTYXL9fPaGioDx4LKce717ws/7Fpg80N9MtJU2TRlOkVUY7BTtmwThauW21zA90ydbr8auIUmwtXDuUYLKpcZl2ZdTZYOZbDGO7t6uxRT8l7Rj0RpAf7wfZZckvnzIooRxKUg3LEoRyUIwnKQTmSoBzJUA7KkUQpy+HM3GtWEATn8gETJ02QjRs22Vwyh8yZLSseXmlz8XL9DLOQjELKcUejJ3uG9H310V5H7vaciijHYO+q8+Wi+uy13FemHLkxHd/hVzmUY7B3arkuDinX1VquH2cpVzmWwxju7epLB26Uc/fYFqQHu+zxiXL9C2MqohxJUA7KEYdyUI4kKAflSIJyJEM5KEcSpSwHzaGtAzVeCguAjQc1AAaqxW6NaZsaanV3pY6IDQAAAMQjCLYmRdwPvNQTye06B1DedmsKD4LXdLNbAAAAQPXibNc6KKKi9z5qgVFldm8OD4JX9VATDAAAgOpFEGyNtY/ZUAuMajKqzpfpEc2hX+zOdCoAAAAAVCOCYGtCRGXv1vCW0kDF2as5vMe8ZzrrxWN7BwAAQBWr6iB4kvjyWi2hmUw6yviIe4K32EegGkTdD/x8F7XAAAAAqG5VGwS/zvWlo0nkmw1eMC1u8mVhxK2OE+xjNluFe4JRPaKC4BfpGRoAAABVriqDYFOoqxv8AbW/E3X6RL0n8+uy1/hOcsID3S00D0UVGau/gzAvdxEEAwAAoLpVZRBsaoHDfKrel6OyPD8lorn0ZvsIVINREb+PLnpCBwAAQJWryiA47jS+dVAQUK9/MDbkj0zDUWqCAQAAAKA6OEfMmRuEeN3d3cGMJMaNHydbNufWXdT+B8yUJ5942ubi5foZTU1NwaMpR5348tvtG4N8mHe0jJftEycGnzHZ96VjR/bXr3NcaRu1647h4SxHUnGf0dbbKR/o6bS5gb7bOEo6GpptLlw5lGOw1t4u+WDPDpsb6LrGFmlvaLG5XcqxHMZwblfnTV8jF85YHeQHu+rlGXLdmqlButzLkRTloBxxKAflSIJyUI4kKEcylINyJFHKcjgz95oVBMGdnV3BjCQmTpogGzfkNnruIXNmy4qHV9pcvFw/o6UlE8j1leME15crGsKrcC/tdWTphInBZxzk+HJLY/bXrvQdObtnVzXxcJcjibjPeFedLxfVZy/flSlHbkzHN4Eth3IM9k4t18Uh5bpay/XjLOUqx3IYw7ldXbTPFrl0v+yN/C9/arxc/ey4IF3u5UiKclCOOJSDciRBOShHEpQjGcpBOZIoZTmqtnfou73sQVCfw/qVfFpEDPgyg6YCAAAAQNWo2iDYeNgPj27n9bsveJJ9zGZVyB3GZrilmxr9YPpQSG0kAAAAAKC8VHcQHD4SjMzS2Ha6l3lBREWwbMwS3/5vvRcMtzTb8YPp3DpfvtcQ8WEAAAAAgLJQ1UHwWg1gzT29YXb3Td/PIs9EVOQuHxTbjkul5C1ZhlI9Upfkq6p6aQIAAABA5av6sO3RiHt6x/mZ5x7UQHldlpeZINo8198R27fa1FCvdSKiaQAAAADAiKv6IHhTRE3wWNkVtJ7d68rvvV2v/a2mzbzBxqYztcfZpKLaVQNlIupSDZswAAAAql3VB8HZB4LJ6KsJNkyt7yd6HTmm2w0mM4RSttrhPXvCx51aHRVdYFjN0S37fXV+ME0hsgMAAABgVX8QHBGYTvaHdmZlQtyo4ZX37+q0qaGeHOG+saZqsHec6wfTpMj6vsrSv1yTE5br9fraC+oz060NnhyveQAAAACo+iD46YgGnm/t7ZIWm07CjC28W0RN8BMjGGedWCdya6MvVzVkpsVNmaCx0p2gZViiQWxfuZZoGXMNaMfqJvCOOoLgPiwJAAAA1LKqD4Jfjjjjr9fJBI9JnRYRSD3qO7JthO6obNDp/9V7MqZfeDNRpys0aKxkDbo4TRlMENtnvKav1Hlmw/17v3u445jeu3ej4zIAAACg5jkHz5oTRAbdXV3BjCTGTxgvmzdF3W071EGzZ8m/Vz5uc/Fy/Yym5ubgMVs5Pu91yxsle4dWf3Xq5BNOk82F208DzBu98KbQX3Ya5ZeOCasHKmY5wpw8ukku27rR5gYyZdtXPLnA77VzBrrGaZBbdIozHOUY/BnH6zr7sq67bC7Rcv1F190Pmx05cMd2OzecWfvHuaNGpBxJDOfv47zdN8on9l4X5Ae74vnJcs2Lk4J0uZcjKcpBOeJQDsqRBOWgHElQjmQoB+VIopTlqPqaYOMud2hw2uc1floOynJv8GCn+Cmbyu4hDchGyp6p8O+2ewU3fp3Rr+OywQ7QwN64fOYBcoMG8WvFsXOyu38E189wm9aQkpMmbQumqQ3hvZkDAAAAtciZudesINLo7Ewe+U+cNEE2bthkc8kcMme2rHh4pc3Fy/UzWloykX9YOX7XFN6p0o1pR66MGN/IdMz0m8bwEKtd//6rIX9f7HJkc9GYJnlXb/ZaavO9zDteVJ+97KbcpvxxhqMcgz/j7a4vnwtp0n2Dfuer9Lv3bVfvrPPl4pAyGqbnbzME1kiUI4li/T5Ontop/++gDTKhIbO9bup15b//PUnu2mYayGfK8eF9tshl+2W/qva1p8fLlc+MC9IjWY4wlbY+wlAOypEE5aAcSVCOZCgH5UiCctROOWqiJtj4aUSF2EINtvrfdzrYyTEdMd02wpVtUXWc0fXX5W2rE75S9u73lKntfl94Zb8s13iw/xjQ1crVIv7g0HU7A2DDpM0881w+/mfWJvnm7A3BdMCo7E3qAQAAgEpSM0HwbyICVdMB01sjAt3TIzrEulPf99/+yAZYbkSTZ08ceTji+z0c1YZ4hN0fsc5Mr9HTbLE+qAFw/07BBrvFq43N/OQpO2xqqPfOyH7PeJhXjuuRJbOekPfvuVUWzNgeTH9+9Spp00cAAACgktVMEPyUBoK/iagNnB9SnWp6j+5f6zjY7WVQw1gX0St12vflfg1012d5zVqNGx8c4QA+imn8EBW6fb3ek1M2rJO3RVykWKZl/+MI19SXg/1bktfiHjuhW244bJ28YtTQJvanTQ8PtAEAAIBKUDNBsGFqbcPMdHz5nyz3lL4/IsB6QAPI+8ogCK6PqAVN2SbF7+hx5K5+5V82Zpy8o7f8V/+fIpbvHP36C9ettrnsaqUW2OiKWFazWnb1sv3w1kabGmpLypVvH7JepoR0qHXCpC6Z1shVBQAAAFSumgqC79EgIar571s14G1v9OTdGgwvrBP533pPDo4YW/YXCTqUGg5JWjSv1mL8twY4x3U7wXT17nsFNcHl7paIDsvi/Exjtf6Bf7V7bHv4UFevGtsljXZb/tOG5iDYHazHd+S0adsjg9wndjTImp7a6WkbAAAA1aemgmDjZzGB6yx9+kINhj+hAfBbIs71H9N44tdlEmBFfY2GQcMMbRMnmCrF4/r1f5tHbbtpRv2ddG1t3s911cvqiAD1CA2E+7Q+OFUe2LKrRtjUDv99U5PMHd9j52T3y7UtNgUAAABUppoLgm/TgGplEe6DNcF09kGJhl8qIqitjynquRrwf6chM50a0wv2SPlKypFHc1xn30i5FVHTXWzLN4c3dT6geVeA+5AGvScvny6vv29GMP109Sg5bmJ0d/Lfe2GsXP7UeJsDAAAAKlPNBcHGJzQWKCSANU2qzdjA5SKqJjhi5CD5ZoMnH6r35SgNfs30eQ2EPxUx1u5I2axf6Yu9In9PWCP8qV4nuP97kvhynJbLTGas51rwyLbwIHjfLJ1jrdzeIL26fD93QPQYbCZI/uzjE2wOAAAAqFw1GQS/KI5c0OPIRif34q9paJBryygANnojxtMNaxz7+s0b5bVZij+/zo8cbmikmNr7CzS4/T9d9mG1wuY1l6Vc+bUGyybwXdzky1Ua2JtpiQb8Zlilavf0jvDLHvu1ZG/q/JF9t9hUdv/Y3CQfWTnJ5gAAAIDKVpNBsPGQBkyfbB4jd+dwv+lLGjx/b8aeZdEjdH+R9wTbx/5Mrehp69fY3FCvqyuv8vX3w5QjZ/U48q5eV76gQfH3pu8ul+u8BZo/W+f39QBuAt+JmWRgrBbpCp0XVTNeDZ7sDC/h6ydsl3H1A7tRe+vUHfKfEcMevdxdJx99dFLQaRYAAABQDZwj5swNqse6u3cNoRJn3PhxsmVzdO3RYPsfMFOefOJpm4uX62c0NTUFj/mU4z97u+TEVI+8wkvZZ4a6paFZflnfJKMOPKDsyvGfDa58aNM6mxvIfOcrmkbbXMYnurfLm1Lh7986aoKsH1RLPpzrIxfZtqtj0r3ypa6tNjfQVydNk992h6/nwUayHFGiPmP5nBXS4mbvM/xjz+4lv9q0q1nzTbOelFeOCg+CL3pmH/nd5nE2F6+cf+e5oBzJUA7KkQTloBxJUI5kKAflSIJyxJfDmbnXrCAI7uyM7hSnv4mTJsjGDdH3EA52yJzZsuLhlTYXL9fPaGlpDh4LKYcZd/ZY22TWhI0vavIlnUzNb9+iLMdyvH78aPlGSNBnxjI+t2dXLd4l9b60RYx9bO67Nc2OBxuJ9ZFEtvVhymfKmc2NjS1y5dbkP/CRLEeUqM+4ZvZ6OWNG9sB20arRO5s2n7nbdrni4A1BOpufbpgoH3pojM0lUwm/8yQoRzKUg3IkQTkoRxKUIxnKQTmSoBzx5ajZ5tDZmA6vvptygukKnUznV3/uFwCXqxfd8GFxzJBPfUxP0FEBsPHHJIMOl7mtEb1lj/GqoIAx7toYPozRSZN3dQn34b3Dr6xt023/mtXTbQ4AAACoHgTBVWCN48rWkNjWdHJl7gF+nesHPUFH+YUGPkvKrNOvfGwbNDZyf6enuuXAyi9ipLvWZ66CZTOpwZPjJ3XJf+2zRfYbFd4s/JvPjpNVPdnuKAcAAAAqG0FwlXg6Ir7dQwPhj8T0CPW8/r3pebkaLI/puOxGDQRPqtCeomc0peWUqZ1y0oTNMnd89t6eN/S68vv14bXBb5zSKZ/ab7PNDfViV5185/mxNgcAAABUF4LgKvFMRBPg8+t92dcJD/qCcWJ7HVlbmXHhENt1ihpTuEGfurzBlw/ENA0vNyb4/dNRq+T7h66Tq/Z5Tn7+qtVyj+ZNQDtv3MBG+/dsyHQMkM25e2yzqey++dw46Y25kAAAAABUKoLgKvFixK2u82LW8sUpVx6ssiFwvp+gVvu8ej+YKoGrxTHB7+AhjmaN7g2aNt9x5Bq56fC18mYNlI0/bwpvEh3lgS2NcsOLuXWGBQAAAFQSguAq8WyesdzXU47cW4V9Rd2vZbopQSBsaoM/XgGB8MlTwocx6vP6SV3yQw2Ub3vVGjlt2g7568bw2uAwlz893qYAAACA6kQQXCX+nUdN7t2eI7dUyX3A2fw/DfBvTlC+MzUQfm+ZB8J+RHP3wV49vlsu2meLvGZibv2af+bxCXLPhvxqkAEAAIBKQRBcJUxN8G9zuI9zVWOjfEWDxGr3DS1jkhrhD2sg/PrwkaZG3K/Whnd0VQxfe3q8fP8FOsMCAABA9SMIriJmiKMkHvId+foe+1ZNR1hxTI3w/yYI+N9XBh1lHTymV06Y1CXn7701qM397323yGf23yRfPWij3Le5SXqLfO+2aTJ9+gPT5Mpnxtk5AAAAQHUjCK4if/Ektnb3Hs+Ri3odWdMwPGPAHqpb2OGOL2drgGk6ofqYTqbp8ecafPmUzV+kkxnD+JyeTnm3PprXtul0hk5vd305uU7kGH2f/XUy4x7n49a0I+/vdaXX5rM5WL/nIcP8i5jWmJa3TO2U88f8W+4+apXcNW+V3HL4WvmsBr6X7rdZPjZzs1ygAfE5u2+To8Z3S0NEL9+5uHdTkxz9991k/oPT5O+aBgAAAGoFQXCVWazB3tk9jvwxbWdYv9fg91INfi/WaUuJKjxNgGoCXhO8ftbrll96nXJDgyc/bPTlvzW4NZ1QnaWTaXpsgtv5Nv8unc7V6d29nXKhPprXXqLTZTqZYPlL9Z5cq++zWKd7mnz5TaMn39L579fX5mK5J/KF5uiej9+kQanpYdnUwprpgj02BFNfPsn0gelrss7vP/3vrI3y27mr5aHXvCTXH7pOzmh+Vg4aHRWiZ/eLtS3SncdwRsdM6JZvzt5gcwAAAEDtcN580slBJNHbmwpmJNHS0iydnV02l8y06VNkzep1Nhcv189oaKgPHpOWY1KqVw700jJle/SYqYONHjNatm/bLi81NIrGYfJUc7Os1XSYUpfDGK71Idu3y9i0J+PSKX3UKWUe07Jbb4/M7OqUvbtz+w7F8NKYMfK9SdPkieZk98yacrz+xRdk4brVds4uzZO7ZMz+m6ShftAVhDL2y6495QfbZ8nbWp6XtzS9KDPqMkMkJfVMaoz895a5stkbug0P13ZVLb8PypEM5aAccSgH5UiCclCOJChHMrVYDmfmXrOCIDiXD5g4aYJs3LDJ5pI5ZM5sWfHwSpuLl+tnmIVkJCnHiXUiX6j3825aO9hz+jamlvGfniP3+4483+9tS1mOPkk+w1T576blneKITNfp0D1myKaXV2WetPq3tJ2or5mor5/sODJV09P0DUb7xVlexbYk7ciXE3byZZbV5E2bpKNh6LhQux3zoi4Em6kQ56+YLLetGWVz+jsb0yuvHNctR47vkYUzttu50UynW+c+MsXmdqn033kfykE54lAOypEE5aAcSVCOZCgH5UiilOWouebQ9Rrk/L96r2gBsLG3vufpGlibpru3N3pyU2PmHtf36NTa2xUMwdP//taT9NEE4sfp4wk6vUGnN9nnTvFTcppO5p5Y01T4nTqZ5sLn2PxCfc0CffxPncz7narTKanuoGmxec7cT9vXvNjca/sNLasJ+JY1efLzJj9omny5fs93rHk5aJbcfzLfuW8yn/UWfb+j9P1nanRcrgGwcYp+11w8ofGvGUe4v+ZJnRUXAL/cXTek1+gV2xrkJy+NkY+snCQnLp0h30vQ4/PJUzvlPyYn3+kBAAAAlazmguDjhqHEszVoNEHof+n0wZ4d8nENKvvf32qCUBOIX6WPV+j0NZ2+Yp/7lN8jH9fJ3BNrOo26WCcTzH7E5j+hr/mkPn5aJ/N+n9fpo93bg06mzHPmftq+jqZMMGyG/Tmgytfyk0MrdWNtqbSId5BfbJwgJ9w3Q3oieot+VAPizz4+QT70r8mx9w2b+5QBAACAWlBzQbBXxjWayM8f8ugYanDI17WhRYrYOKAg/9zaKNc8O04uf2q8fPHJCUEge/HKSfLeR6bIoX/ZQw7/6+7yief2ki2pZD/fn64eJfMf2UuWbw2/b3re+G45fGyPzQEAAADVq+aC4D/nETAhf6aS1gzLdG3Kka/q9GkN3D7S6wTTJTpdpvnP66MZx/f/mkbLFeYx7ch39PEH+vhjnRalM+/xtO8E79ffoinTg9fkaluWgHfjY5PF6x3+n8Tj2xvk1117yH8/OkmO/ftu8qZl0+V/NQC+WgPhbz03NmjS3L5qtNy5tkXW6/db01Nn/zK5FTua5KInZsgznZkOA7LZpyV5ZwgAAABApaq5INj0+2vGyd1Q4c1hy9UzGqj+Shfyt5wGudBpkqN73GBYJhPQtutknvuTBrRm+p1Od2r+Dn004/jeVt8kP9HHH2oAfJ0+msD5ap2+poGyeY8zehyZ1+3KafqeJ9npl5OGduiURLYuo7rWN8vaB6fJ9f+aHNTCmukbz08Opr58kumqVdOzzu8/mVrd81ZMlqPu3U2Ou2+GfGPbIXLzy6Pl6YggtVAvddcP6ERrMGqCAQAAUAtqLgg2TG1wa7fIpc1j5RsaZOUy3TRVAxZ9vEGDtH/mcS9qJTNdJ5mesJdquX+ty/BmXQbX6PRFDVLf3+vK6zVA/U8NVE1t700aBC936iRV5CbG5u3Md1hnp3xtDflbr7dOnlzfEtTCBjWxL04Kpr58kum61dOyzu8/mVrd2zUgfb6rdEFvNk/tCP+8iVl6zAYAAACqTU0GwYapCV5a1xAEcrlMv544OXi8SgPhd2vgd0KPKxfq4/WafzSik6JysFoDPzOU08/1+98+aeqA4P7rg6Yv9DpB7aspo6l5PXX0RDnW1sJ+UOd9Sp8zf2fK/bN05n1z6yR9ZG2PaAkwpoDgutxt0nUXZkI9QTAAAACqX80GwcWyRQOmv2jsYGpEz+pxgiDR1Iqa+19NkHhdQ4t8Sx+/p8+bZr436aNpFmwCRxOM3mabAt+ik2kK/BOnXn7kNAT3xJr3NMG2uU/WNAs298qa9/quPprmxSYANffD3qSfYZoPm+e+qY/mb8xnn6eB6kd1Wqjf6Xid3mK/2+f0uSVTpg0I7s3n959u1+9l7sM1td2m5jUqaKxEh7vhke4z1RwEp8J/8pMaCYIBAABQ/QiCi8wEjKZW1AS6Jrhsb2yR7+vjtzXwNEHs/9NHEyCbJsQmGP0fDVJNp1Cm9tUEu992GuV7GgSboNYEuabZtQmOTbBrgmjzXt/VR3O/rAmSTXB8vX6GCZrNcz/SR/M35rPv0yD2bp0e0+8U1vy31sz00nJhXWZ85TDrq/h+cTNOdpgUMTAAAABqAEEwqpbZuI/SYPeDGvR+s8GTe5p8+X7nZnl3ffQVAXMRo1pNirjvd31v7r1OAwAAAJXGOWLO3CAi6O7uDmYkMW78ONmyefBIq9H2P2CmPPnE0zYXL9fPaGpqCh4pRzLVXI4TUj3yunSPHJPqlaYcB//9W32jfKZpjM1V3/p4+5iX5fN7vhikB7t53WT50ou72xzbFeWIRzkoRxKUg3IkQTmSoRyUIwnKEV8OZ+Zes4IoobPT9P2bzMRJE2Tjhty6QTpkzmxZ8fBKm4uX62e0tDQHj5QjmWosx16OyCX1nhxbQPsGcx+1aUbep9rWx88PfUYOGdMbpAe74plx8vWnx9sc2xXliEc5KEcSlINyJEE5kqEclCMJyhFfDppDo2r8rLGwALjvPupqtGdTr1x1wKrQANi4Z0NmxwEAAABUM4JgVIXXuX5BG7PpYMz0qF1tzNi/5++9VW6f87ycOmWrnTvUhl5X/rE504QEAAAAqGYEwagK++QZv5phoMzQVj9OV1cAfPCYXvnCAZvkn695UT67/yaZWJ+2z2R39bPjbAoAAACobgTB/RyocdCbXF/Oq/flg2aq8+UDOr1R543JsYMlDC8zVnMS2x1H/qyBrxmC6uLezPSoXz0B8OFje+QbB2+Qu+atkg/stTVySKQ+j29vkOueH2tzAAAAQHUjCFazNFD4XoMnixo9+UpDJvA1AbAJhE1A/FWdZ4bXMWmUp2c0kDXjIw9mbov/jQa9Zizm1l5XTh01US7SwNeMq2xqgSvZKN1Gr9aAd9kxLwXTlw7cKL+eu1rO3m27fUUyl/frDAsAAACodjUfBL9VA4l2DX6PTLAkTHB83ssvyJjqqTisKldpYHupBrg3ajBsJtPT82u7XfmkPt6q+SeqaPzfOvHlj0etklYNePdoTgfTuXtss88mY+4DvnDlJPnV2hY7BwAAAKh+NR0EH5rulf/JsXb3NVs3yzs1GEZ5+q3nyJUaDJvJ9PRcRXHvAG+csEX2aU7ZXO5+unqUvHHZDFm8arSdAwAAANSGmg6Cj/XyCyLaXF8YTAYj6egxudX69vnn1kY59f5p8qF/TZaXuursXAAAAKB21HQQfEZPp03lZqwjcmABS26a/v3hjh90wnWCTufW+fJ+ncw9yG/wU8F0iL4/nXEhzNreBptK5jcbxsh5j+0mb1o2XZYyFBIAAABqWM0GwXtrIFpv0/l4rQavuTCf9zENcm9r9OTXOv2w0Q864bpCpw/p/PN1Mp1xfcHvCaYbG7ygM67LdP5sDZiB/trXT7KpaB0vj5ZTl0+T8zUA/q0GwgAAAECtcw6eNSeIsLq7TD+6yYyfMF42b9psc8kcNHuW/Hvl4zYXL9fPaGrONFBOWo5jJC3f8LptbqD7nDq5R+pkf/HkdD97k+lvOo3S7sSH0QePGyP/sXmjnOX32jm5M/e1fkE/7/chn1cN68OgHLmV48IJT8h7Zmyycwb66+ZR8rXnJsvD2zPfn/VBOZKgHJQjCcqRDOWgHElQDsqRBOVIJpdy1GxNcFTfVs+IIylHQgNg42l9TZxDNHy9bGthAbBhVpKpHX5vge+D6vLFZ6bK1S9MtrmMR7Y3yUWPz5BzVu6xMwAGAAAAsIszc69ZQTjY2Zk88p84aYJs3JC9BirMIXNmy4qHV9pcvFw/o6Ulc8KftByvrxP5Rn32voPv8Bw5Naa585t6XFkb8RITuH6/0ZcjityU+QqNzn8yaDzcalgfBuXIrxyHj+0JHo2Htjba1ECsD8qRBOWgHElQjmQoB+VIgnJQjiQoRzK5lKNma4LviRg7Jy4Afk6fjgqAjTfqexQ7ADY+Wu/L0Tnej4zqZgLfvgkAAABAtJoNglMaR36ueazssPlc3DSoJjabN5Vw9JlLNRBmdFcAAAAAyF3NBsHGX+oa5D97XPlob3xQ2+cPEybJbV706/fXpWqGPorzcw2mr9Pp6ylHvpZy5XJ9/IHTIH9woiNo09N0rr1TAwAAAABqPAg2TP/QX6hPFlD+SIPUH03bTXpjXr5HwvF931bny2Z96S0aCC9Ki3To4/UaBH/WaZIvmZ65IpwZ1bMXAAAAACCrmg+C36HB5NiYiuCtGm9e2uvINxM0g87ViSE1uj/Vz7o6IhA+TNfctOJ/HQAAAACoajUdBJvCnxtTo3qzBqPH97jy25gm0P3dk8Nrt0UMtfRj/ewnIjrwKkXHWwAAAABQzWo6CD6zt9OmsvtyypFvxDRLDnNxryMR8etOf0rbRIi/++Gfv1t+Xw0AAAAAalZNB8Gv7901vupgd2lwuqSA5s9msJq4hXutBti3x9Qam3uGw1APDAAAAAC5qdkgeJzGnvv64dWwNxR4/29ULe1jGr1+oNeVHyT4jIkRL4kKkAEAAAAAQ9VsEHxSxBBDD/iOPBTRDDmJyRF/fr8nsp/jy9v1O7xZpxPrRF6ja+JoTb9WA/P/0OlknXe6ThMj6ns32UcAAAAAQDLOEXPmBlFWd7cZLCiZcePHyZbNW2wumf0PmClPPvG0zcXL9TOampqCx6TlaOvplA+E3BN8XUOLtDe22NxASctxeqpbPty93eZK46LmcfJIXX1VrA+DclCOOJSDciRBOShHEpQjGcpBOZKgHJQjiXIqhzNzr1lBENzZ2RXMSGLipAmycUNu9ZCHzJktKx5eaXPxcv2Mlpbm4DFpOT5U74f2DP3jtCOr9KmXddokjkwSP6jZnazPHTFxnGzWlbFen4vqNOtQV+SGhiRdY+XHNIU+sSdTkV8N68OgHJQjDuWgHElQDsqRBOVIhnJQjiQoB+VIopzKUbPNoaNGF3qXBseXaJB8VYMvP9JA9gp9vEzz5+l09NbN8ibXl7P0NTc3+rJHSHPlRzT+XR8x/FGhfpXDMEwAAAAAgIyaDYJN51SFOlgj6dfW2UwWP0zZRJFt1e9uaqsBAAAAALmp2SD4niLVpJ4YsQRv1UD1l/WZtunFskEc+XTKkTVFCOIBAAAAoNbUbBBsWorf1JC986tcPBBx26+5JfuKptHyGQ1a/1CE24N/lhZp1Tf9M02hAQAAACAvNRsEG9c3tsg1BTYr/kuCoZR+qZ/x8V5X3tTjysW9jlytQfF3dZ5p0nyLTrdpUHunBri/1sdfOvXyM51u0vlmHOHv6Gs/oX/zFv3bL6bcoCYYAAAAAJCfmg6CjettkPlHDUJzscITObvHCR6TWutnmmGb4Pe7+rkmGP66Tv+jn3+ZBrif0scvO43yDZ3+n86/Vqfr9LW/179ZTfNnAAAAAChYzQfBhgkyP6ZB6Jka1H5UA1ETmJqa2Lt1/hJ9NLW0N+jjlTr/O7vtKQt7XDmn15WVCWqBAQAAAADlgyC4n39rUGsCX9NE2dTEmoD4y/poammv0scbdf5fx44vSs/SAAAAAIDhRxAMAAAAAKgZBMEAAAAAgJpBEAwAAAAAqBnOm086ObjDtbc3FcxIoqWlWTo7zUi7yU2bPkXWrF5nc/Fy/YyGhvrgkXIkQzmSoRyUIwnKQTmSoBzJUA7KkQTloBxJUI5karEczsy9ZgVBcC4fMHHSBNm4YZPNJXPInNmy4uGVNhcv188wC8mgHMlQjmQoB+VIgnJQjiQoRzKUg3IkQTkoRxKUI5laLAfNoQEAAAAANYMgGAAAAABQMwiCAQAAAAA1gyAYAAAAAFAzCIIBAAAAADWDIBgAAAAAUDMIggEAAAAANYMgGAAAAABQMwiCAQAAAAA1gyAYAAAAAFAznCPmzPVNoru7O5iRxLjx42TL5i02l8z+B8yUJ5942ubi5foZTU1NwSPlSIZyJEM5KEcSlINyJEE5kqEclCMJykE5kqAcydRiOZyZe80KguDOzq5gRhITJ02QjRs22Vwyh8yZLSseXmlz8XL9jJaW5uCRciRDOZKhHJQjCcpBOZKgHMlQDsqRBOWgHElQjmRqsRw0hwYAAAAA1AyCYAAAAABAzSAIBgAAAADUDIJgAAAAAEDNIAgGAAAAANQMgmAAAAAAQM0gCAYAAAAA1AyCYAAAAABAzSAIBgAAAADUDIJgAAAAAEDNcA6eNcc3ie6urmBGEuMnjJfNmzbbXDIHzZ4l/175uM3Fy/Uzmpqbg0fKkQzlSIZyUI4kKAflSIJyJEM5KEcSlINyJEE5kqnFclATDAAAAACoGc7MvWYFNcGdnckj/4mTJsjGDZtsLplD5syWFQ+vtLl4uX5GS0sm8qccyVCOZCgH5UiCclCOJChHMpSDciRBOShHEpQjmVosBzXBAAAAAICaQRAMAAAAAKgZBMEAAAAAgJpBEAwAAAAAqBkEwQAAAACAmkEQDAAAAACoGQTBAAAAAICaQRAMAAAAAKgZBMEAAAAAgJpBEAwAAAAAqBnOEXPm+ibR3d0dzEhi3PhxsmXzFptLZv8DZsqTTzxtc/Fy/YympqbgkXIkQzmSoRyUIwnKQTmSoBzJUA7KkQTloBxJUI5karEczsy9ZgVBcGdnVzAjiYmTJsjGDZtsLplD5syWFQ+vtLl4uX5GS0tz8Eg5kqEcyVAOypEE5aAcSVCOZCgH5UiCclCOJChHMrVYDppDAwAAAABqBkEwAAAAAKBmEAQDAAAAAGoGQTAAAAAAoGYQBAMAAAAAagZBMAAAAACgZhAEAwAAAABqBkEwAAAAAKBmEAQDAAAAAGoGQTAAAAAAoGYQBAMAAAAAaobz5pNO9k2itzcVzEiipaVZOju7bC6ZadOnyJrV62wuXq6f0dBQHzxSjmQoRzKUg3IkQTkoRxKUIxnKQTmSoByUIwnKkUwtlsOZudesIAjO5QMmTpogGzdssrlkDpkzW1Y8vNLm4uX6GWYhGZQjGcqRDOWgHElQDsqRBOVIhnJQjiQoB+VIgnIkU4vloDk0AAAAAKBmEAQDAAAAAGoGQTAAAAAAoGYQBAMAAAAAagZBMAAAAACgZhAEAwAAAABqBkEwAAAAAKBmEAQDAAAAAGoGQTAAAAAAoGYQBAMAAAAAaoZzxJy5vkl0d3cHM5IYN36cbNm8xeaS2f+AmfLkE0/bXLxcP6OpqSl4pBzJUI5kKAflSIJyUI4kKEcylINyJEE5KEcSlCOZWiyHM3OvWUEQ3NnZFcxIYuKkCbJxwyabS+aQObNlxcMrbS5erp/R0tIcPFKOZChHMpSDciRBOShHEpQjGcpBOZKgHJQjCcqRTC2Wg+bQAAAAAICaQRAMAAAAAKgZBMEAAAAAgJpBEAwAAAAAqBkEwQAAAACAmkEQDAAAAACoGQTBAAAAAICaQRAMAAAAAKgZBMEAAAAAgJpBEAwAAAAAqBEi/x9uyf3A7E+EkAAAAABJRU5ErkJggg==;" vertex="1" parent="1">
                    <mxGeometry x="280" y="560" width="480.5" height="230.5" as="geometry"/>
                </mxCell>
            </root>
        </mxGraphModel>
    </diagram>
</mxfile>